<mxfile host="Electron" modified="2023-11-11T09:43:07.533Z" agent="Mozilla/5.0 (Windows NT 10.0; Win64; x64) AppleWebKit/537.36 (KHTML, like Gecko) draw.io/22.0.3 Chrome/114.0.5735.289 Electron/25.8.4 Safari/537.36" etag="z_pjhD60Quqod7uFe97v" version="22.0.3" type="device">
  <diagram id="R2lEEEUBdFMjLlhIrx00" name="Page-1">
    <mxGraphModel dx="1400" dy="1458" grid="1" gridSize="10" guides="1" tooltips="1" connect="1" arrows="1" fold="1" page="1" pageScale="1" pageWidth="850" pageHeight="1100" math="0" shadow="0" extFonts="Permanent Marker^https://fonts.googleapis.com/css?family=Permanent+Marker">
      <root>
        <mxCell id="0" />
        <mxCell id="1" parent="0" />
        <mxCell id="C-vyLk0tnHw3VtMMgP7b-12" value="" style="edgeStyle=entityRelationEdgeStyle;endArrow=ERzeroToMany;startArrow=ERone;endFill=1;startFill=0;" parent="1" source="C-vyLk0tnHw3VtMMgP7b-3" target="PWjsfuIPjYbMQ2Njbi1s-7" edge="1">
          <mxGeometry width="100" height="100" relative="1" as="geometry">
            <mxPoint x="360" y="520" as="sourcePoint" />
            <mxPoint x="300" y="495" as="targetPoint" />
          </mxGeometry>
        </mxCell>
        <mxCell id="C-vyLk0tnHw3VtMMgP7b-1" value="" style="edgeStyle=entityRelationEdgeStyle;endArrow=ERzeroToMany;startArrow=ERmandOne;endFill=1;startFill=0;" parent="1" source="C-vyLk0tnHw3VtMMgP7b-24" target="C-vyLk0tnHw3VtMMgP7b-6" edge="1">
          <mxGeometry width="100" height="100" relative="1" as="geometry">
            <mxPoint x="340" y="720" as="sourcePoint" />
            <mxPoint x="440" y="620" as="targetPoint" />
          </mxGeometry>
        </mxCell>
        <mxCell id="C-vyLk0tnHw3VtMMgP7b-2" value="Country" style="shape=table;startSize=30;container=1;collapsible=1;childLayout=tableLayout;fixedRows=1;rowLines=0;fontStyle=1;align=center;resizeLast=1;" parent="1" vertex="1">
          <mxGeometry x="127" y="-157" width="120" height="130" as="geometry" />
        </mxCell>
        <mxCell id="C-vyLk0tnHw3VtMMgP7b-3" value="" style="shape=partialRectangle;collapsible=0;dropTarget=0;pointerEvents=0;fillColor=none;points=[[0,0.5],[1,0.5]];portConstraint=eastwest;top=0;left=0;right=0;bottom=1;" parent="C-vyLk0tnHw3VtMMgP7b-2" vertex="1">
          <mxGeometry y="30" width="120" height="30" as="geometry" />
        </mxCell>
        <mxCell id="C-vyLk0tnHw3VtMMgP7b-4" value="PK" style="shape=partialRectangle;overflow=hidden;connectable=0;fillColor=none;top=0;left=0;bottom=0;right=0;fontStyle=1;" parent="C-vyLk0tnHw3VtMMgP7b-3" vertex="1">
          <mxGeometry width="30" height="30" as="geometry">
            <mxRectangle width="30" height="30" as="alternateBounds" />
          </mxGeometry>
        </mxCell>
        <mxCell id="C-vyLk0tnHw3VtMMgP7b-5" value="id" style="shape=partialRectangle;overflow=hidden;connectable=0;fillColor=none;top=0;left=0;bottom=0;right=0;align=left;spacingLeft=6;fontStyle=5;" parent="C-vyLk0tnHw3VtMMgP7b-3" vertex="1">
          <mxGeometry x="30" width="90" height="30" as="geometry">
            <mxRectangle width="90" height="30" as="alternateBounds" />
          </mxGeometry>
        </mxCell>
        <mxCell id="C-vyLk0tnHw3VtMMgP7b-6" value="" style="shape=partialRectangle;collapsible=0;dropTarget=0;pointerEvents=0;fillColor=none;points=[[0,0.5],[1,0.5]];portConstraint=eastwest;top=0;left=0;right=0;bottom=0;" parent="C-vyLk0tnHw3VtMMgP7b-2" vertex="1">
          <mxGeometry y="60" width="120" height="30" as="geometry" />
        </mxCell>
        <mxCell id="C-vyLk0tnHw3VtMMgP7b-7" value="FK1" style="shape=partialRectangle;overflow=hidden;connectable=0;fillColor=none;top=0;left=0;bottom=0;right=0;" parent="C-vyLk0tnHw3VtMMgP7b-6" vertex="1">
          <mxGeometry width="30" height="30" as="geometry">
            <mxRectangle width="30" height="30" as="alternateBounds" />
          </mxGeometry>
        </mxCell>
        <mxCell id="C-vyLk0tnHw3VtMMgP7b-8" value="continent_id" style="shape=partialRectangle;overflow=hidden;connectable=0;fillColor=none;top=0;left=0;bottom=0;right=0;align=left;spacingLeft=6;" parent="C-vyLk0tnHw3VtMMgP7b-6" vertex="1">
          <mxGeometry x="30" width="90" height="30" as="geometry">
            <mxRectangle width="90" height="30" as="alternateBounds" />
          </mxGeometry>
        </mxCell>
        <mxCell id="C-vyLk0tnHw3VtMMgP7b-9" value="" style="shape=partialRectangle;collapsible=0;dropTarget=0;pointerEvents=0;fillColor=none;points=[[0,0.5],[1,0.5]];portConstraint=eastwest;top=0;left=0;right=0;bottom=0;" parent="C-vyLk0tnHw3VtMMgP7b-2" vertex="1">
          <mxGeometry y="90" width="120" height="30" as="geometry" />
        </mxCell>
        <mxCell id="C-vyLk0tnHw3VtMMgP7b-10" value="" style="shape=partialRectangle;overflow=hidden;connectable=0;fillColor=none;top=0;left=0;bottom=0;right=0;" parent="C-vyLk0tnHw3VtMMgP7b-9" vertex="1">
          <mxGeometry width="30" height="30" as="geometry">
            <mxRectangle width="30" height="30" as="alternateBounds" />
          </mxGeometry>
        </mxCell>
        <mxCell id="C-vyLk0tnHw3VtMMgP7b-11" value="name" style="shape=partialRectangle;overflow=hidden;connectable=0;fillColor=none;top=0;left=0;bottom=0;right=0;align=left;spacingLeft=6;" parent="C-vyLk0tnHw3VtMMgP7b-9" vertex="1">
          <mxGeometry x="30" width="90" height="30" as="geometry">
            <mxRectangle width="90" height="30" as="alternateBounds" />
          </mxGeometry>
        </mxCell>
        <mxCell id="C-vyLk0tnHw3VtMMgP7b-23" value="Continent" style="shape=table;startSize=30;container=1;collapsible=1;childLayout=tableLayout;fixedRows=1;rowLines=0;fontStyle=1;align=center;resizeLast=1;" parent="1" vertex="1">
          <mxGeometry x="-87" y="-156" width="120" height="100" as="geometry" />
        </mxCell>
        <mxCell id="C-vyLk0tnHw3VtMMgP7b-24" value="" style="shape=partialRectangle;collapsible=0;dropTarget=0;pointerEvents=0;fillColor=none;points=[[0,0.5],[1,0.5]];portConstraint=eastwest;top=0;left=0;right=0;bottom=1;" parent="C-vyLk0tnHw3VtMMgP7b-23" vertex="1">
          <mxGeometry y="30" width="120" height="30" as="geometry" />
        </mxCell>
        <mxCell id="C-vyLk0tnHw3VtMMgP7b-25" value="PK" style="shape=partialRectangle;overflow=hidden;connectable=0;fillColor=none;top=0;left=0;bottom=0;right=0;fontStyle=1;" parent="C-vyLk0tnHw3VtMMgP7b-24" vertex="1">
          <mxGeometry width="30" height="30" as="geometry">
            <mxRectangle width="30" height="30" as="alternateBounds" />
          </mxGeometry>
        </mxCell>
        <mxCell id="C-vyLk0tnHw3VtMMgP7b-26" value="continent_id" style="shape=partialRectangle;overflow=hidden;connectable=0;fillColor=none;top=0;left=0;bottom=0;right=0;align=left;spacingLeft=6;fontStyle=5;" parent="C-vyLk0tnHw3VtMMgP7b-24" vertex="1">
          <mxGeometry x="30" width="90" height="30" as="geometry">
            <mxRectangle width="90" height="30" as="alternateBounds" />
          </mxGeometry>
        </mxCell>
        <mxCell id="C-vyLk0tnHw3VtMMgP7b-27" value="" style="shape=partialRectangle;collapsible=0;dropTarget=0;pointerEvents=0;fillColor=none;points=[[0,0.5],[1,0.5]];portConstraint=eastwest;top=0;left=0;right=0;bottom=0;" parent="C-vyLk0tnHw3VtMMgP7b-23" vertex="1">
          <mxGeometry y="60" width="120" height="30" as="geometry" />
        </mxCell>
        <mxCell id="C-vyLk0tnHw3VtMMgP7b-28" value="" style="shape=partialRectangle;overflow=hidden;connectable=0;fillColor=none;top=0;left=0;bottom=0;right=0;" parent="C-vyLk0tnHw3VtMMgP7b-27" vertex="1">
          <mxGeometry width="30" height="30" as="geometry">
            <mxRectangle width="30" height="30" as="alternateBounds" />
          </mxGeometry>
        </mxCell>
        <mxCell id="C-vyLk0tnHw3VtMMgP7b-29" value="name" style="shape=partialRectangle;overflow=hidden;connectable=0;fillColor=none;top=0;left=0;bottom=0;right=0;align=left;spacingLeft=6;" parent="C-vyLk0tnHw3VtMMgP7b-27" vertex="1">
          <mxGeometry x="30" width="90" height="30" as="geometry">
            <mxRectangle width="90" height="30" as="alternateBounds" />
          </mxGeometry>
        </mxCell>
        <mxCell id="PWjsfuIPjYbMQ2Njbi1s-3" value="State" style="shape=table;startSize=30;container=1;collapsible=1;childLayout=tableLayout;fixedRows=1;rowLines=0;fontStyle=1;align=center;resizeLast=1;" parent="1" vertex="1">
          <mxGeometry x="333" y="-160" width="120" height="130" as="geometry" />
        </mxCell>
        <mxCell id="PWjsfuIPjYbMQ2Njbi1s-4" value="" style="shape=partialRectangle;collapsible=0;dropTarget=0;pointerEvents=0;fillColor=none;points=[[0,0.5],[1,0.5]];portConstraint=eastwest;top=0;left=0;right=0;bottom=1;" parent="PWjsfuIPjYbMQ2Njbi1s-3" vertex="1">
          <mxGeometry y="30" width="120" height="30" as="geometry" />
        </mxCell>
        <mxCell id="PWjsfuIPjYbMQ2Njbi1s-5" value="PK" style="shape=partialRectangle;overflow=hidden;connectable=0;fillColor=none;top=0;left=0;bottom=0;right=0;fontStyle=1;" parent="PWjsfuIPjYbMQ2Njbi1s-4" vertex="1">
          <mxGeometry width="30" height="30" as="geometry">
            <mxRectangle width="30" height="30" as="alternateBounds" />
          </mxGeometry>
        </mxCell>
        <mxCell id="PWjsfuIPjYbMQ2Njbi1s-6" value="id" style="shape=partialRectangle;overflow=hidden;connectable=0;fillColor=none;top=0;left=0;bottom=0;right=0;align=left;spacingLeft=6;fontStyle=5;" parent="PWjsfuIPjYbMQ2Njbi1s-4" vertex="1">
          <mxGeometry x="30" width="90" height="30" as="geometry">
            <mxRectangle width="90" height="30" as="alternateBounds" />
          </mxGeometry>
        </mxCell>
        <mxCell id="PWjsfuIPjYbMQ2Njbi1s-7" value="" style="shape=partialRectangle;collapsible=0;dropTarget=0;pointerEvents=0;fillColor=none;points=[[0,0.5],[1,0.5]];portConstraint=eastwest;top=0;left=0;right=0;bottom=0;" parent="PWjsfuIPjYbMQ2Njbi1s-3" vertex="1">
          <mxGeometry y="60" width="120" height="30" as="geometry" />
        </mxCell>
        <mxCell id="PWjsfuIPjYbMQ2Njbi1s-8" value="FK1" style="shape=partialRectangle;overflow=hidden;connectable=0;fillColor=none;top=0;left=0;bottom=0;right=0;" parent="PWjsfuIPjYbMQ2Njbi1s-7" vertex="1">
          <mxGeometry width="30" height="30" as="geometry">
            <mxRectangle width="30" height="30" as="alternateBounds" />
          </mxGeometry>
        </mxCell>
        <mxCell id="PWjsfuIPjYbMQ2Njbi1s-9" value="country_id" style="shape=partialRectangle;overflow=hidden;connectable=0;fillColor=none;top=0;left=0;bottom=0;right=0;align=left;spacingLeft=6;" parent="PWjsfuIPjYbMQ2Njbi1s-7" vertex="1">
          <mxGeometry x="30" width="90" height="30" as="geometry">
            <mxRectangle width="90" height="30" as="alternateBounds" />
          </mxGeometry>
        </mxCell>
        <mxCell id="PWjsfuIPjYbMQ2Njbi1s-10" value="" style="shape=partialRectangle;collapsible=0;dropTarget=0;pointerEvents=0;fillColor=none;points=[[0,0.5],[1,0.5]];portConstraint=eastwest;top=0;left=0;right=0;bottom=0;" parent="PWjsfuIPjYbMQ2Njbi1s-3" vertex="1">
          <mxGeometry y="90" width="120" height="30" as="geometry" />
        </mxCell>
        <mxCell id="PWjsfuIPjYbMQ2Njbi1s-11" value="" style="shape=partialRectangle;overflow=hidden;connectable=0;fillColor=none;top=0;left=0;bottom=0;right=0;" parent="PWjsfuIPjYbMQ2Njbi1s-10" vertex="1">
          <mxGeometry width="30" height="30" as="geometry">
            <mxRectangle width="30" height="30" as="alternateBounds" />
          </mxGeometry>
        </mxCell>
        <mxCell id="PWjsfuIPjYbMQ2Njbi1s-12" value="name" style="shape=partialRectangle;overflow=hidden;connectable=0;fillColor=none;top=0;left=0;bottom=0;right=0;align=left;spacingLeft=6;" parent="PWjsfuIPjYbMQ2Njbi1s-10" vertex="1">
          <mxGeometry x="30" width="90" height="30" as="geometry">
            <mxRectangle width="90" height="30" as="alternateBounds" />
          </mxGeometry>
        </mxCell>
        <mxCell id="PWjsfuIPjYbMQ2Njbi1s-13" value="City" style="shape=table;startSize=30;container=1;collapsible=1;childLayout=tableLayout;fixedRows=1;rowLines=0;fontStyle=1;align=center;resizeLast=1;" parent="1" vertex="1">
          <mxGeometry x="570" y="-71" width="120" height="160" as="geometry" />
        </mxCell>
        <mxCell id="PWjsfuIPjYbMQ2Njbi1s-14" value="" style="shape=partialRectangle;collapsible=0;dropTarget=0;pointerEvents=0;fillColor=none;points=[[0,0.5],[1,0.5]];portConstraint=eastwest;top=0;left=0;right=0;bottom=1;" parent="PWjsfuIPjYbMQ2Njbi1s-13" vertex="1">
          <mxGeometry y="30" width="120" height="30" as="geometry" />
        </mxCell>
        <mxCell id="PWjsfuIPjYbMQ2Njbi1s-15" value="PK" style="shape=partialRectangle;overflow=hidden;connectable=0;fillColor=none;top=0;left=0;bottom=0;right=0;fontStyle=1;" parent="PWjsfuIPjYbMQ2Njbi1s-14" vertex="1">
          <mxGeometry width="30" height="30" as="geometry">
            <mxRectangle width="30" height="30" as="alternateBounds" />
          </mxGeometry>
        </mxCell>
        <mxCell id="PWjsfuIPjYbMQ2Njbi1s-16" value="city_id" style="shape=partialRectangle;overflow=hidden;connectable=0;fillColor=none;top=0;left=0;bottom=0;right=0;align=left;spacingLeft=6;fontStyle=5;" parent="PWjsfuIPjYbMQ2Njbi1s-14" vertex="1">
          <mxGeometry x="30" width="90" height="30" as="geometry">
            <mxRectangle width="90" height="30" as="alternateBounds" />
          </mxGeometry>
        </mxCell>
        <mxCell id="PWjsfuIPjYbMQ2Njbi1s-17" value="" style="shape=partialRectangle;collapsible=0;dropTarget=0;pointerEvents=0;fillColor=none;points=[[0,0.5],[1,0.5]];portConstraint=eastwest;top=0;left=0;right=0;bottom=0;" parent="PWjsfuIPjYbMQ2Njbi1s-13" vertex="1">
          <mxGeometry y="60" width="120" height="30" as="geometry" />
        </mxCell>
        <mxCell id="PWjsfuIPjYbMQ2Njbi1s-18" value="FK1" style="shape=partialRectangle;overflow=hidden;connectable=0;fillColor=none;top=0;left=0;bottom=0;right=0;" parent="PWjsfuIPjYbMQ2Njbi1s-17" vertex="1">
          <mxGeometry width="30" height="30" as="geometry">
            <mxRectangle width="30" height="30" as="alternateBounds" />
          </mxGeometry>
        </mxCell>
        <mxCell id="PWjsfuIPjYbMQ2Njbi1s-19" value="state_id" style="shape=partialRectangle;overflow=hidden;connectable=0;fillColor=none;top=0;left=0;bottom=0;right=0;align=left;spacingLeft=6;" parent="PWjsfuIPjYbMQ2Njbi1s-17" vertex="1">
          <mxGeometry x="30" width="90" height="30" as="geometry">
            <mxRectangle width="90" height="30" as="alternateBounds" />
          </mxGeometry>
        </mxCell>
        <mxCell id="PWjsfuIPjYbMQ2Njbi1s-20" value="" style="shape=partialRectangle;collapsible=0;dropTarget=0;pointerEvents=0;fillColor=none;points=[[0,0.5],[1,0.5]];portConstraint=eastwest;top=0;left=0;right=0;bottom=0;" parent="PWjsfuIPjYbMQ2Njbi1s-13" vertex="1">
          <mxGeometry y="90" width="120" height="30" as="geometry" />
        </mxCell>
        <mxCell id="PWjsfuIPjYbMQ2Njbi1s-21" value="" style="shape=partialRectangle;overflow=hidden;connectable=0;fillColor=none;top=0;left=0;bottom=0;right=0;" parent="PWjsfuIPjYbMQ2Njbi1s-20" vertex="1">
          <mxGeometry width="30" height="30" as="geometry">
            <mxRectangle width="30" height="30" as="alternateBounds" />
          </mxGeometry>
        </mxCell>
        <mxCell id="PWjsfuIPjYbMQ2Njbi1s-22" value="name" style="shape=partialRectangle;overflow=hidden;connectable=0;fillColor=none;top=0;left=0;bottom=0;right=0;align=left;spacingLeft=6;" parent="PWjsfuIPjYbMQ2Njbi1s-20" vertex="1">
          <mxGeometry x="30" width="90" height="30" as="geometry">
            <mxRectangle width="90" height="30" as="alternateBounds" />
          </mxGeometry>
        </mxCell>
        <mxCell id="AqpXS15bqgrEqTLivbJl-57" value="" style="shape=partialRectangle;collapsible=0;dropTarget=0;pointerEvents=0;fillColor=none;points=[[0,0.5],[1,0.5]];portConstraint=eastwest;top=0;left=0;right=0;bottom=0;" parent="PWjsfuIPjYbMQ2Njbi1s-13" vertex="1">
          <mxGeometry y="120" width="120" height="30" as="geometry" />
        </mxCell>
        <mxCell id="AqpXS15bqgrEqTLivbJl-58" value="" style="shape=partialRectangle;overflow=hidden;connectable=0;fillColor=none;top=0;left=0;bottom=0;right=0;" parent="AqpXS15bqgrEqTLivbJl-57" vertex="1">
          <mxGeometry width="30" height="30" as="geometry">
            <mxRectangle width="30" height="30" as="alternateBounds" />
          </mxGeometry>
        </mxCell>
        <mxCell id="AqpXS15bqgrEqTLivbJl-59" value="postal_code" style="shape=partialRectangle;overflow=hidden;connectable=0;fillColor=none;top=0;left=0;bottom=0;right=0;align=left;spacingLeft=6;" parent="AqpXS15bqgrEqTLivbJl-57" vertex="1">
          <mxGeometry x="30" width="90" height="30" as="geometry">
            <mxRectangle width="90" height="30" as="alternateBounds" />
          </mxGeometry>
        </mxCell>
        <mxCell id="PWjsfuIPjYbMQ2Njbi1s-29" value="" style="edgeStyle=orthogonalEdgeStyle;endArrow=ERzeroToMany;startArrow=ERmandOne;endFill=1;startFill=0;" parent="1" source="PWjsfuIPjYbMQ2Njbi1s-4" target="PWjsfuIPjYbMQ2Njbi1s-13" edge="1">
          <mxGeometry width="100" height="100" relative="1" as="geometry">
            <mxPoint x="50" y="205" as="sourcePoint" />
            <mxPoint x="130" y="295" as="targetPoint" />
          </mxGeometry>
        </mxCell>
        <mxCell id="PWjsfuIPjYbMQ2Njbi1s-30" value="Facility" style="shape=table;startSize=30;container=1;collapsible=1;childLayout=tableLayout;fixedRows=1;rowLines=0;fontStyle=1;align=center;resizeLast=1;" parent="1" vertex="1">
          <mxGeometry x="637" y="280" width="243" height="307" as="geometry" />
        </mxCell>
        <mxCell id="PWjsfuIPjYbMQ2Njbi1s-31" value="" style="shape=partialRectangle;collapsible=0;dropTarget=0;pointerEvents=0;fillColor=none;points=[[0,0.5],[1,0.5]];portConstraint=eastwest;top=0;left=0;right=0;bottom=1;" parent="PWjsfuIPjYbMQ2Njbi1s-30" vertex="1">
          <mxGeometry y="30" width="243" height="30" as="geometry" />
        </mxCell>
        <mxCell id="PWjsfuIPjYbMQ2Njbi1s-32" value="PK" style="shape=partialRectangle;overflow=hidden;connectable=0;fillColor=none;top=0;left=0;bottom=0;right=0;fontStyle=1;" parent="PWjsfuIPjYbMQ2Njbi1s-31" vertex="1">
          <mxGeometry width="30" height="30" as="geometry">
            <mxRectangle width="30" height="30" as="alternateBounds" />
          </mxGeometry>
        </mxCell>
        <mxCell id="PWjsfuIPjYbMQ2Njbi1s-33" value="id" style="shape=partialRectangle;overflow=hidden;connectable=0;fillColor=none;top=0;left=0;bottom=0;right=0;align=left;spacingLeft=6;fontStyle=5;" parent="PWjsfuIPjYbMQ2Njbi1s-31" vertex="1">
          <mxGeometry x="30" width="213" height="30" as="geometry">
            <mxRectangle width="213" height="30" as="alternateBounds" />
          </mxGeometry>
        </mxCell>
        <mxCell id="PWjsfuIPjYbMQ2Njbi1s-34" value="" style="shape=partialRectangle;collapsible=0;dropTarget=0;pointerEvents=0;fillColor=none;points=[[0,0.5],[1,0.5]];portConstraint=eastwest;top=0;left=0;right=0;bottom=0;" parent="PWjsfuIPjYbMQ2Njbi1s-30" vertex="1">
          <mxGeometry y="60" width="243" height="30" as="geometry" />
        </mxCell>
        <mxCell id="PWjsfuIPjYbMQ2Njbi1s-35" value="FK1" style="shape=partialRectangle;overflow=hidden;connectable=0;fillColor=none;top=0;left=0;bottom=0;right=0;" parent="PWjsfuIPjYbMQ2Njbi1s-34" vertex="1">
          <mxGeometry width="30" height="30" as="geometry">
            <mxRectangle width="30" height="30" as="alternateBounds" />
          </mxGeometry>
        </mxCell>
        <mxCell id="PWjsfuIPjYbMQ2Njbi1s-36" value="city_id" style="shape=partialRectangle;overflow=hidden;connectable=0;fillColor=none;top=0;left=0;bottom=0;right=0;align=left;spacingLeft=6;" parent="PWjsfuIPjYbMQ2Njbi1s-34" vertex="1">
          <mxGeometry x="30" width="213" height="30" as="geometry">
            <mxRectangle width="213" height="30" as="alternateBounds" />
          </mxGeometry>
        </mxCell>
        <mxCell id="PWjsfuIPjYbMQ2Njbi1s-50" value="" style="shape=partialRectangle;collapsible=0;dropTarget=0;pointerEvents=0;fillColor=none;points=[[0,0.5],[1,0.5]];portConstraint=eastwest;top=0;left=0;right=0;bottom=0;" parent="PWjsfuIPjYbMQ2Njbi1s-30" vertex="1">
          <mxGeometry y="90" width="243" height="30" as="geometry" />
        </mxCell>
        <mxCell id="PWjsfuIPjYbMQ2Njbi1s-51" value="" style="shape=partialRectangle;overflow=hidden;connectable=0;fillColor=none;top=0;left=0;bottom=0;right=0;" parent="PWjsfuIPjYbMQ2Njbi1s-50" vertex="1">
          <mxGeometry width="30" height="30" as="geometry">
            <mxRectangle width="30" height="30" as="alternateBounds" />
          </mxGeometry>
        </mxCell>
        <mxCell id="PWjsfuIPjYbMQ2Njbi1s-52" value="name" style="shape=partialRectangle;overflow=hidden;connectable=0;fillColor=none;top=0;left=0;bottom=0;right=0;align=left;spacingLeft=6;" parent="PWjsfuIPjYbMQ2Njbi1s-50" vertex="1">
          <mxGeometry x="30" width="213" height="30" as="geometry">
            <mxRectangle width="213" height="30" as="alternateBounds" />
          </mxGeometry>
        </mxCell>
        <mxCell id="11huZsw0YOGw-BMZvz2H-56" value="" style="shape=partialRectangle;collapsible=0;dropTarget=0;pointerEvents=0;fillColor=none;points=[[0,0.5],[1,0.5]];portConstraint=eastwest;top=0;left=0;right=0;bottom=0;" parent="PWjsfuIPjYbMQ2Njbi1s-30" vertex="1">
          <mxGeometry y="120" width="243" height="30" as="geometry" />
        </mxCell>
        <mxCell id="11huZsw0YOGw-BMZvz2H-57" value="" style="shape=partialRectangle;overflow=hidden;connectable=0;fillColor=none;top=0;left=0;bottom=0;right=0;" parent="11huZsw0YOGw-BMZvz2H-56" vertex="1">
          <mxGeometry width="30" height="30" as="geometry">
            <mxRectangle width="30" height="30" as="alternateBounds" />
          </mxGeometry>
        </mxCell>
        <mxCell id="11huZsw0YOGw-BMZvz2H-58" value="is_blood_storage_capable" style="shape=partialRectangle;overflow=hidden;connectable=0;fillColor=none;top=0;left=0;bottom=0;right=0;align=left;spacingLeft=6;" parent="11huZsw0YOGw-BMZvz2H-56" vertex="1">
          <mxGeometry x="30" width="213" height="30" as="geometry">
            <mxRectangle width="213" height="30" as="alternateBounds" />
          </mxGeometry>
        </mxCell>
        <mxCell id="PWjsfuIPjYbMQ2Njbi1s-57" value="" style="shape=partialRectangle;collapsible=0;dropTarget=0;pointerEvents=0;fillColor=none;points=[[0,0.5],[1,0.5]];portConstraint=eastwest;top=0;left=0;right=0;bottom=0;" parent="PWjsfuIPjYbMQ2Njbi1s-30" vertex="1">
          <mxGeometry y="150" width="243" height="30" as="geometry" />
        </mxCell>
        <mxCell id="PWjsfuIPjYbMQ2Njbi1s-58" value="" style="shape=partialRectangle;overflow=hidden;connectable=0;fillColor=none;top=0;left=0;bottom=0;right=0;" parent="PWjsfuIPjYbMQ2Njbi1s-57" vertex="1">
          <mxGeometry width="30" height="30" as="geometry">
            <mxRectangle width="30" height="30" as="alternateBounds" />
          </mxGeometry>
        </mxCell>
        <mxCell id="PWjsfuIPjYbMQ2Njbi1s-59" value="latitude" style="shape=partialRectangle;overflow=hidden;connectable=0;fillColor=none;top=0;left=0;bottom=0;right=0;align=left;spacingLeft=6;" parent="PWjsfuIPjYbMQ2Njbi1s-57" vertex="1">
          <mxGeometry x="30" width="213" height="30" as="geometry">
            <mxRectangle width="213" height="30" as="alternateBounds" />
          </mxGeometry>
        </mxCell>
        <mxCell id="11huZsw0YOGw-BMZvz2H-44" value="" style="shape=partialRectangle;collapsible=0;dropTarget=0;pointerEvents=0;fillColor=none;points=[[0,0.5],[1,0.5]];portConstraint=eastwest;top=0;left=0;right=0;bottom=0;" parent="PWjsfuIPjYbMQ2Njbi1s-30" vertex="1">
          <mxGeometry y="180" width="243" height="27" as="geometry" />
        </mxCell>
        <mxCell id="11huZsw0YOGw-BMZvz2H-45" value="" style="shape=partialRectangle;overflow=hidden;connectable=0;fillColor=none;top=0;left=0;bottom=0;right=0;" parent="11huZsw0YOGw-BMZvz2H-44" vertex="1">
          <mxGeometry width="30" height="27" as="geometry">
            <mxRectangle width="30" height="27" as="alternateBounds" />
          </mxGeometry>
        </mxCell>
        <mxCell id="11huZsw0YOGw-BMZvz2H-46" value="latitude" style="shape=partialRectangle;overflow=hidden;connectable=0;fillColor=none;top=0;left=0;bottom=0;right=0;align=left;spacingLeft=6;" parent="11huZsw0YOGw-BMZvz2H-44" vertex="1">
          <mxGeometry x="30" width="213" height="27" as="geometry">
            <mxRectangle width="213" height="27" as="alternateBounds" />
          </mxGeometry>
        </mxCell>
        <mxCell id="11huZsw0YOGw-BMZvz2H-47" value="" style="shape=partialRectangle;collapsible=0;dropTarget=0;pointerEvents=0;fillColor=none;points=[[0,0.5],[1,0.5]];portConstraint=eastwest;top=0;left=0;right=0;bottom=0;" parent="PWjsfuIPjYbMQ2Njbi1s-30" vertex="1">
          <mxGeometry y="207" width="243" height="30" as="geometry" />
        </mxCell>
        <mxCell id="11huZsw0YOGw-BMZvz2H-48" value="" style="shape=partialRectangle;overflow=hidden;connectable=0;fillColor=none;top=0;left=0;bottom=0;right=0;" parent="11huZsw0YOGw-BMZvz2H-47" vertex="1">
          <mxGeometry width="30" height="30" as="geometry">
            <mxRectangle width="30" height="30" as="alternateBounds" />
          </mxGeometry>
        </mxCell>
        <mxCell id="11huZsw0YOGw-BMZvz2H-49" value="address_line1" style="shape=partialRectangle;overflow=hidden;connectable=0;fillColor=none;top=0;left=0;bottom=0;right=0;align=left;spacingLeft=6;" parent="11huZsw0YOGw-BMZvz2H-47" vertex="1">
          <mxGeometry x="30" width="213" height="30" as="geometry">
            <mxRectangle width="213" height="30" as="alternateBounds" />
          </mxGeometry>
        </mxCell>
        <mxCell id="11huZsw0YOGw-BMZvz2H-53" value="" style="shape=partialRectangle;collapsible=0;dropTarget=0;pointerEvents=0;fillColor=none;points=[[0,0.5],[1,0.5]];portConstraint=eastwest;top=0;left=0;right=0;bottom=0;" parent="PWjsfuIPjYbMQ2Njbi1s-30" vertex="1">
          <mxGeometry y="237" width="243" height="30" as="geometry" />
        </mxCell>
        <mxCell id="11huZsw0YOGw-BMZvz2H-54" value="" style="shape=partialRectangle;overflow=hidden;connectable=0;fillColor=none;top=0;left=0;bottom=0;right=0;" parent="11huZsw0YOGw-BMZvz2H-53" vertex="1">
          <mxGeometry width="30" height="30" as="geometry">
            <mxRectangle width="30" height="30" as="alternateBounds" />
          </mxGeometry>
        </mxCell>
        <mxCell id="11huZsw0YOGw-BMZvz2H-55" value="address_line2" style="shape=partialRectangle;overflow=hidden;connectable=0;fillColor=none;top=0;left=0;bottom=0;right=0;align=left;spacingLeft=6;" parent="11huZsw0YOGw-BMZvz2H-53" vertex="1">
          <mxGeometry x="30" width="213" height="30" as="geometry">
            <mxRectangle width="213" height="30" as="alternateBounds" />
          </mxGeometry>
        </mxCell>
        <mxCell id="PWjsfuIPjYbMQ2Njbi1s-60" value="" style="shape=partialRectangle;collapsible=0;dropTarget=0;pointerEvents=0;fillColor=none;points=[[0,0.5],[1,0.5]];portConstraint=eastwest;top=0;left=0;right=0;bottom=0;" parent="PWjsfuIPjYbMQ2Njbi1s-30" vertex="1">
          <mxGeometry y="267" width="243" height="30" as="geometry" />
        </mxCell>
        <mxCell id="PWjsfuIPjYbMQ2Njbi1s-61" value="" style="shape=partialRectangle;overflow=hidden;connectable=0;fillColor=none;top=0;left=0;bottom=0;right=0;" parent="PWjsfuIPjYbMQ2Njbi1s-60" vertex="1">
          <mxGeometry width="30" height="30" as="geometry">
            <mxRectangle width="30" height="30" as="alternateBounds" />
          </mxGeometry>
        </mxCell>
        <mxCell id="PWjsfuIPjYbMQ2Njbi1s-62" value="phone_number" style="shape=partialRectangle;overflow=hidden;connectable=0;fillColor=none;top=0;left=0;bottom=0;right=0;align=left;spacingLeft=6;" parent="PWjsfuIPjYbMQ2Njbi1s-60" vertex="1">
          <mxGeometry x="30" width="213" height="30" as="geometry">
            <mxRectangle width="213" height="30" as="alternateBounds" />
          </mxGeometry>
        </mxCell>
        <mxCell id="AqpXS15bqgrEqTLivbJl-46" style="edgeStyle=orthogonalEdgeStyle;rounded=0;orthogonalLoop=1;jettySize=auto;html=1;startArrow=ERzeroToOne;startFill=0;endArrow=ERmandOne;endFill=0;entryX=0.5;entryY=1;entryDx=0;entryDy=0;exitX=0.5;exitY=0;exitDx=0;exitDy=0;" parent="1" source="PWjsfuIPjYbMQ2Njbi1s-117" target="PWjsfuIPjYbMQ2Njbi1s-63" edge="1">
          <mxGeometry relative="1" as="geometry" />
        </mxCell>
        <mxCell id="PWjsfuIPjYbMQ2Njbi1s-63" value="User" style="shape=table;startSize=30;container=1;collapsible=1;childLayout=tableLayout;fixedRows=1;rowLines=0;fontStyle=1;align=center;resizeLast=1;" parent="1" vertex="1">
          <mxGeometry x="-699" y="123" width="149" height="280" as="geometry" />
        </mxCell>
        <mxCell id="PWjsfuIPjYbMQ2Njbi1s-64" value="" style="shape=partialRectangle;collapsible=0;dropTarget=0;pointerEvents=0;fillColor=none;points=[[0,0.5],[1,0.5]];portConstraint=eastwest;top=0;left=0;right=0;bottom=1;" parent="PWjsfuIPjYbMQ2Njbi1s-63" vertex="1">
          <mxGeometry y="30" width="149" height="30" as="geometry" />
        </mxCell>
        <mxCell id="PWjsfuIPjYbMQ2Njbi1s-65" value="PK" style="shape=partialRectangle;overflow=hidden;connectable=0;fillColor=none;top=0;left=0;bottom=0;right=0;fontStyle=1;" parent="PWjsfuIPjYbMQ2Njbi1s-64" vertex="1">
          <mxGeometry width="30" height="30" as="geometry">
            <mxRectangle width="30" height="30" as="alternateBounds" />
          </mxGeometry>
        </mxCell>
        <mxCell id="PWjsfuIPjYbMQ2Njbi1s-66" value="id" style="shape=partialRectangle;overflow=hidden;connectable=0;fillColor=none;top=0;left=0;bottom=0;right=0;align=left;spacingLeft=6;fontStyle=5;" parent="PWjsfuIPjYbMQ2Njbi1s-64" vertex="1">
          <mxGeometry x="30" width="119" height="30" as="geometry">
            <mxRectangle width="119" height="30" as="alternateBounds" />
          </mxGeometry>
        </mxCell>
        <mxCell id="PWjsfuIPjYbMQ2Njbi1s-67" value="" style="shape=partialRectangle;collapsible=0;dropTarget=0;pointerEvents=0;fillColor=none;points=[[0,0.5],[1,0.5]];portConstraint=eastwest;top=0;left=0;right=0;bottom=0;" parent="PWjsfuIPjYbMQ2Njbi1s-63" vertex="1">
          <mxGeometry y="60" width="149" height="30" as="geometry" />
        </mxCell>
        <mxCell id="PWjsfuIPjYbMQ2Njbi1s-68" value="FK1" style="shape=partialRectangle;overflow=hidden;connectable=0;fillColor=none;top=0;left=0;bottom=0;right=0;" parent="PWjsfuIPjYbMQ2Njbi1s-67" vertex="1">
          <mxGeometry width="30" height="30" as="geometry">
            <mxRectangle width="30" height="30" as="alternateBounds" />
          </mxGeometry>
        </mxCell>
        <mxCell id="PWjsfuIPjYbMQ2Njbi1s-69" value="role_id" style="shape=partialRectangle;overflow=hidden;connectable=0;fillColor=none;top=0;left=0;bottom=0;right=0;align=left;spacingLeft=6;" parent="PWjsfuIPjYbMQ2Njbi1s-67" vertex="1">
          <mxGeometry x="30" width="119" height="30" as="geometry">
            <mxRectangle width="119" height="30" as="alternateBounds" />
          </mxGeometry>
        </mxCell>
        <mxCell id="BzMAYUd-ufbBIh-IPTbR-4" value="" style="shape=partialRectangle;collapsible=0;dropTarget=0;pointerEvents=0;fillColor=none;points=[[0,0.5],[1,0.5]];portConstraint=eastwest;top=0;left=0;right=0;bottom=0;" vertex="1" parent="PWjsfuIPjYbMQ2Njbi1s-63">
          <mxGeometry y="90" width="149" height="30" as="geometry" />
        </mxCell>
        <mxCell id="BzMAYUd-ufbBIh-IPTbR-5" value="" style="shape=partialRectangle;overflow=hidden;connectable=0;fillColor=none;top=0;left=0;bottom=0;right=0;" vertex="1" parent="BzMAYUd-ufbBIh-IPTbR-4">
          <mxGeometry width="30" height="30" as="geometry">
            <mxRectangle width="30" height="30" as="alternateBounds" />
          </mxGeometry>
        </mxCell>
        <mxCell id="BzMAYUd-ufbBIh-IPTbR-6" value="name" style="shape=partialRectangle;overflow=hidden;connectable=0;fillColor=none;top=0;left=0;bottom=0;right=0;align=left;spacingLeft=6;" vertex="1" parent="BzMAYUd-ufbBIh-IPTbR-4">
          <mxGeometry x="30" width="119" height="30" as="geometry">
            <mxRectangle width="119" height="30" as="alternateBounds" />
          </mxGeometry>
        </mxCell>
        <mxCell id="PWjsfuIPjYbMQ2Njbi1s-70" value="" style="shape=partialRectangle;collapsible=0;dropTarget=0;pointerEvents=0;fillColor=none;points=[[0,0.5],[1,0.5]];portConstraint=eastwest;top=0;left=0;right=0;bottom=0;" parent="PWjsfuIPjYbMQ2Njbi1s-63" vertex="1">
          <mxGeometry y="120" width="149" height="30" as="geometry" />
        </mxCell>
        <mxCell id="PWjsfuIPjYbMQ2Njbi1s-71" value="" style="shape=partialRectangle;overflow=hidden;connectable=0;fillColor=none;top=0;left=0;bottom=0;right=0;" parent="PWjsfuIPjYbMQ2Njbi1s-70" vertex="1">
          <mxGeometry width="30" height="30" as="geometry">
            <mxRectangle width="30" height="30" as="alternateBounds" />
          </mxGeometry>
        </mxCell>
        <mxCell id="PWjsfuIPjYbMQ2Njbi1s-72" value="username" style="shape=partialRectangle;overflow=hidden;connectable=0;fillColor=none;top=0;left=0;bottom=0;right=0;align=left;spacingLeft=6;" parent="PWjsfuIPjYbMQ2Njbi1s-70" vertex="1">
          <mxGeometry x="30" width="119" height="30" as="geometry">
            <mxRectangle width="119" height="30" as="alternateBounds" />
          </mxGeometry>
        </mxCell>
        <mxCell id="AqpXS15bqgrEqTLivbJl-51" value="" style="shape=partialRectangle;collapsible=0;dropTarget=0;pointerEvents=0;fillColor=none;points=[[0,0.5],[1,0.5]];portConstraint=eastwest;top=0;left=0;right=0;bottom=0;" parent="PWjsfuIPjYbMQ2Njbi1s-63" vertex="1">
          <mxGeometry y="150" width="149" height="30" as="geometry" />
        </mxCell>
        <mxCell id="AqpXS15bqgrEqTLivbJl-52" value="" style="shape=partialRectangle;overflow=hidden;connectable=0;fillColor=none;top=0;left=0;bottom=0;right=0;" parent="AqpXS15bqgrEqTLivbJl-51" vertex="1">
          <mxGeometry width="30" height="30" as="geometry">
            <mxRectangle width="30" height="30" as="alternateBounds" />
          </mxGeometry>
        </mxCell>
        <mxCell id="AqpXS15bqgrEqTLivbJl-53" value="email_address" style="shape=partialRectangle;overflow=hidden;connectable=0;fillColor=none;top=0;left=0;bottom=0;right=0;align=left;spacingLeft=6;" parent="AqpXS15bqgrEqTLivbJl-51" vertex="1">
          <mxGeometry x="30" width="119" height="30" as="geometry">
            <mxRectangle width="119" height="30" as="alternateBounds" />
          </mxGeometry>
        </mxCell>
        <mxCell id="AqpXS15bqgrEqTLivbJl-54" value="" style="shape=partialRectangle;collapsible=0;dropTarget=0;pointerEvents=0;fillColor=none;points=[[0,0.5],[1,0.5]];portConstraint=eastwest;top=0;left=0;right=0;bottom=0;" parent="PWjsfuIPjYbMQ2Njbi1s-63" vertex="1">
          <mxGeometry y="180" width="149" height="30" as="geometry" />
        </mxCell>
        <mxCell id="AqpXS15bqgrEqTLivbJl-55" value="" style="shape=partialRectangle;overflow=hidden;connectable=0;fillColor=none;top=0;left=0;bottom=0;right=0;" parent="AqpXS15bqgrEqTLivbJl-54" vertex="1">
          <mxGeometry width="30" height="30" as="geometry">
            <mxRectangle width="30" height="30" as="alternateBounds" />
          </mxGeometry>
        </mxCell>
        <mxCell id="AqpXS15bqgrEqTLivbJl-56" value="phone_number" style="shape=partialRectangle;overflow=hidden;connectable=0;fillColor=none;top=0;left=0;bottom=0;right=0;align=left;spacingLeft=6;" parent="AqpXS15bqgrEqTLivbJl-54" vertex="1">
          <mxGeometry x="30" width="119" height="30" as="geometry">
            <mxRectangle width="119" height="30" as="alternateBounds" />
          </mxGeometry>
        </mxCell>
        <mxCell id="PWjsfuIPjYbMQ2Njbi1s-76" value="" style="shape=partialRectangle;collapsible=0;dropTarget=0;pointerEvents=0;fillColor=none;points=[[0,0.5],[1,0.5]];portConstraint=eastwest;top=0;left=0;right=0;bottom=0;" parent="PWjsfuIPjYbMQ2Njbi1s-63" vertex="1">
          <mxGeometry y="210" width="149" height="30" as="geometry" />
        </mxCell>
        <mxCell id="PWjsfuIPjYbMQ2Njbi1s-77" value="" style="shape=partialRectangle;overflow=hidden;connectable=0;fillColor=none;top=0;left=0;bottom=0;right=0;" parent="PWjsfuIPjYbMQ2Njbi1s-76" vertex="1">
          <mxGeometry width="30" height="30" as="geometry">
            <mxRectangle width="30" height="30" as="alternateBounds" />
          </mxGeometry>
        </mxCell>
        <mxCell id="PWjsfuIPjYbMQ2Njbi1s-78" value="password" style="shape=partialRectangle;overflow=hidden;connectable=0;fillColor=none;top=0;left=0;bottom=0;right=0;align=left;spacingLeft=6;" parent="PWjsfuIPjYbMQ2Njbi1s-76" vertex="1">
          <mxGeometry x="30" width="119" height="30" as="geometry">
            <mxRectangle width="119" height="30" as="alternateBounds" />
          </mxGeometry>
        </mxCell>
        <mxCell id="BzMAYUd-ufbBIh-IPTbR-1" value="" style="shape=partialRectangle;collapsible=0;dropTarget=0;pointerEvents=0;fillColor=none;points=[[0,0.5],[1,0.5]];portConstraint=eastwest;top=0;left=0;right=0;bottom=0;" vertex="1" parent="PWjsfuIPjYbMQ2Njbi1s-63">
          <mxGeometry y="240" width="149" height="30" as="geometry" />
        </mxCell>
        <mxCell id="BzMAYUd-ufbBIh-IPTbR-2" value="" style="shape=partialRectangle;overflow=hidden;connectable=0;fillColor=none;top=0;left=0;bottom=0;right=0;" vertex="1" parent="BzMAYUd-ufbBIh-IPTbR-1">
          <mxGeometry width="30" height="30" as="geometry">
            <mxRectangle width="30" height="30" as="alternateBounds" />
          </mxGeometry>
        </mxCell>
        <mxCell id="BzMAYUd-ufbBIh-IPTbR-3" value="user_type" style="shape=partialRectangle;overflow=hidden;connectable=0;fillColor=none;top=0;left=0;bottom=0;right=0;align=left;spacingLeft=6;" vertex="1" parent="BzMAYUd-ufbBIh-IPTbR-1">
          <mxGeometry x="30" width="119" height="30" as="geometry">
            <mxRectangle width="119" height="30" as="alternateBounds" />
          </mxGeometry>
        </mxCell>
        <mxCell id="PWjsfuIPjYbMQ2Njbi1s-85" value="BloodGroup" style="shape=table;startSize=30;container=1;collapsible=1;childLayout=tableLayout;fixedRows=1;rowLines=0;fontStyle=1;align=center;resizeLast=1;" parent="1" vertex="1">
          <mxGeometry x="67" y="800" width="120" height="100" as="geometry" />
        </mxCell>
        <mxCell id="PWjsfuIPjYbMQ2Njbi1s-86" value="" style="shape=partialRectangle;collapsible=0;dropTarget=0;pointerEvents=0;fillColor=none;points=[[0,0.5],[1,0.5]];portConstraint=eastwest;top=0;left=0;right=0;bottom=1;" parent="PWjsfuIPjYbMQ2Njbi1s-85" vertex="1">
          <mxGeometry y="30" width="120" height="30" as="geometry" />
        </mxCell>
        <mxCell id="PWjsfuIPjYbMQ2Njbi1s-87" value="PK" style="shape=partialRectangle;overflow=hidden;connectable=0;fillColor=none;top=0;left=0;bottom=0;right=0;fontStyle=1;" parent="PWjsfuIPjYbMQ2Njbi1s-86" vertex="1">
          <mxGeometry width="30" height="30" as="geometry">
            <mxRectangle width="30" height="30" as="alternateBounds" />
          </mxGeometry>
        </mxCell>
        <mxCell id="PWjsfuIPjYbMQ2Njbi1s-88" value="id" style="shape=partialRectangle;overflow=hidden;connectable=0;fillColor=none;top=0;left=0;bottom=0;right=0;align=left;spacingLeft=6;fontStyle=5;" parent="PWjsfuIPjYbMQ2Njbi1s-86" vertex="1">
          <mxGeometry x="30" width="90" height="30" as="geometry">
            <mxRectangle width="90" height="30" as="alternateBounds" />
          </mxGeometry>
        </mxCell>
        <mxCell id="PWjsfuIPjYbMQ2Njbi1s-89" value="" style="shape=partialRectangle;collapsible=0;dropTarget=0;pointerEvents=0;fillColor=none;points=[[0,0.5],[1,0.5]];portConstraint=eastwest;top=0;left=0;right=0;bottom=0;" parent="PWjsfuIPjYbMQ2Njbi1s-85" vertex="1">
          <mxGeometry y="60" width="120" height="30" as="geometry" />
        </mxCell>
        <mxCell id="PWjsfuIPjYbMQ2Njbi1s-90" value="" style="shape=partialRectangle;overflow=hidden;connectable=0;fillColor=none;top=0;left=0;bottom=0;right=0;" parent="PWjsfuIPjYbMQ2Njbi1s-89" vertex="1">
          <mxGeometry width="30" height="30" as="geometry">
            <mxRectangle width="30" height="30" as="alternateBounds" />
          </mxGeometry>
        </mxCell>
        <mxCell id="PWjsfuIPjYbMQ2Njbi1s-91" value="name" style="shape=partialRectangle;overflow=hidden;connectable=0;fillColor=none;top=0;left=0;bottom=0;right=0;align=left;spacingLeft=6;" parent="PWjsfuIPjYbMQ2Njbi1s-89" vertex="1">
          <mxGeometry x="30" width="90" height="30" as="geometry">
            <mxRectangle width="90" height="30" as="alternateBounds" />
          </mxGeometry>
        </mxCell>
        <mxCell id="PWjsfuIPjYbMQ2Njbi1s-117" value="Donor" style="shape=table;startSize=30;container=1;collapsible=1;childLayout=tableLayout;fixedRows=1;rowLines=0;fontStyle=1;align=center;resizeLast=1;" parent="1" vertex="1">
          <mxGeometry x="-133" y="457" width="140" height="204" as="geometry" />
        </mxCell>
        <mxCell id="PWjsfuIPjYbMQ2Njbi1s-118" value="" style="shape=partialRectangle;collapsible=0;dropTarget=0;pointerEvents=0;fillColor=none;points=[[0,0.5],[1,0.5]];portConstraint=eastwest;top=0;left=0;right=0;bottom=1;" parent="PWjsfuIPjYbMQ2Njbi1s-117" vertex="1">
          <mxGeometry y="30" width="140" height="30" as="geometry" />
        </mxCell>
        <mxCell id="PWjsfuIPjYbMQ2Njbi1s-119" value="PK" style="shape=partialRectangle;overflow=hidden;connectable=0;fillColor=none;top=0;left=0;bottom=0;right=0;fontStyle=1;" parent="PWjsfuIPjYbMQ2Njbi1s-118" vertex="1">
          <mxGeometry width="30" height="30" as="geometry">
            <mxRectangle width="30" height="30" as="alternateBounds" />
          </mxGeometry>
        </mxCell>
        <mxCell id="PWjsfuIPjYbMQ2Njbi1s-120" value="id" style="shape=partialRectangle;overflow=hidden;connectable=0;fillColor=none;top=0;left=0;bottom=0;right=0;align=left;spacingLeft=6;fontStyle=5;" parent="PWjsfuIPjYbMQ2Njbi1s-118" vertex="1">
          <mxGeometry x="30" width="110" height="30" as="geometry">
            <mxRectangle width="110" height="30" as="alternateBounds" />
          </mxGeometry>
        </mxCell>
        <mxCell id="11huZsw0YOGw-BMZvz2H-4" value="" style="shape=partialRectangle;collapsible=0;dropTarget=0;pointerEvents=0;fillColor=none;points=[[0,0.5],[1,0.5]];portConstraint=eastwest;top=0;left=0;right=0;bottom=0;" parent="PWjsfuIPjYbMQ2Njbi1s-117" vertex="1">
          <mxGeometry y="60" width="140" height="30" as="geometry" />
        </mxCell>
        <mxCell id="11huZsw0YOGw-BMZvz2H-5" value="FK1" style="shape=partialRectangle;overflow=hidden;connectable=0;fillColor=none;top=0;left=0;bottom=0;right=0;" parent="11huZsw0YOGw-BMZvz2H-4" vertex="1">
          <mxGeometry width="30" height="30" as="geometry">
            <mxRectangle width="30" height="30" as="alternateBounds" />
          </mxGeometry>
        </mxCell>
        <mxCell id="11huZsw0YOGw-BMZvz2H-6" value="user_id" style="shape=partialRectangle;overflow=hidden;connectable=0;fillColor=none;top=0;left=0;bottom=0;right=0;align=left;spacingLeft=6;" parent="11huZsw0YOGw-BMZvz2H-4" vertex="1">
          <mxGeometry x="30" width="110" height="30" as="geometry">
            <mxRectangle width="110" height="30" as="alternateBounds" />
          </mxGeometry>
        </mxCell>
        <mxCell id="PWjsfuIPjYbMQ2Njbi1s-121" value="" style="shape=partialRectangle;collapsible=0;dropTarget=0;pointerEvents=0;fillColor=none;points=[[0,0.5],[1,0.5]];portConstraint=eastwest;top=0;left=0;right=0;bottom=0;" parent="PWjsfuIPjYbMQ2Njbi1s-117" vertex="1">
          <mxGeometry y="90" width="140" height="30" as="geometry" />
        </mxCell>
        <mxCell id="PWjsfuIPjYbMQ2Njbi1s-122" value="FK2" style="shape=partialRectangle;overflow=hidden;connectable=0;fillColor=none;top=0;left=0;bottom=0;right=0;" parent="PWjsfuIPjYbMQ2Njbi1s-121" vertex="1">
          <mxGeometry width="30" height="30" as="geometry">
            <mxRectangle width="30" height="30" as="alternateBounds" />
          </mxGeometry>
        </mxCell>
        <mxCell id="PWjsfuIPjYbMQ2Njbi1s-123" value="blood_group_id" style="shape=partialRectangle;overflow=hidden;connectable=0;fillColor=none;top=0;left=0;bottom=0;right=0;align=left;spacingLeft=6;" parent="PWjsfuIPjYbMQ2Njbi1s-121" vertex="1">
          <mxGeometry x="30" width="110" height="30" as="geometry">
            <mxRectangle width="110" height="30" as="alternateBounds" />
          </mxGeometry>
        </mxCell>
        <mxCell id="PWjsfuIPjYbMQ2Njbi1s-133" value="" style="shape=partialRectangle;collapsible=0;dropTarget=0;pointerEvents=0;fillColor=none;points=[[0,0.5],[1,0.5]];portConstraint=eastwest;top=0;left=0;right=0;bottom=0;" parent="PWjsfuIPjYbMQ2Njbi1s-117" vertex="1">
          <mxGeometry y="120" width="140" height="21" as="geometry" />
        </mxCell>
        <mxCell id="PWjsfuIPjYbMQ2Njbi1s-134" value="" style="shape=partialRectangle;overflow=hidden;connectable=0;fillColor=none;top=0;left=0;bottom=0;right=0;" parent="PWjsfuIPjYbMQ2Njbi1s-133" vertex="1">
          <mxGeometry width="30" height="21" as="geometry">
            <mxRectangle width="30" height="21" as="alternateBounds" />
          </mxGeometry>
        </mxCell>
        <mxCell id="PWjsfuIPjYbMQ2Njbi1s-135" value="number" style="shape=partialRectangle;overflow=hidden;connectable=0;fillColor=none;top=0;left=0;bottom=0;right=0;align=left;spacingLeft=6;" parent="PWjsfuIPjYbMQ2Njbi1s-133" vertex="1">
          <mxGeometry x="30" width="110" height="21" as="geometry">
            <mxRectangle width="110" height="21" as="alternateBounds" />
          </mxGeometry>
        </mxCell>
        <mxCell id="PWjsfuIPjYbMQ2Njbi1s-162" value="" style="shape=partialRectangle;collapsible=0;dropTarget=0;pointerEvents=0;fillColor=none;points=[[0,0.5],[1,0.5]];portConstraint=eastwest;top=0;left=0;right=0;bottom=0;" parent="PWjsfuIPjYbMQ2Njbi1s-117" vertex="1">
          <mxGeometry y="141" width="140" height="30" as="geometry" />
        </mxCell>
        <mxCell id="PWjsfuIPjYbMQ2Njbi1s-163" value="" style="shape=partialRectangle;overflow=hidden;connectable=0;fillColor=none;top=0;left=0;bottom=0;right=0;" parent="PWjsfuIPjYbMQ2Njbi1s-162" vertex="1">
          <mxGeometry width="30" height="30" as="geometry">
            <mxRectangle width="30" height="30" as="alternateBounds" />
          </mxGeometry>
        </mxCell>
        <mxCell id="PWjsfuIPjYbMQ2Njbi1s-164" value="birth_date" style="shape=partialRectangle;overflow=hidden;connectable=0;fillColor=none;top=0;left=0;bottom=0;right=0;align=left;spacingLeft=6;" parent="PWjsfuIPjYbMQ2Njbi1s-162" vertex="1">
          <mxGeometry x="30" width="110" height="30" as="geometry">
            <mxRectangle width="110" height="30" as="alternateBounds" />
          </mxGeometry>
        </mxCell>
        <mxCell id="PWjsfuIPjYbMQ2Njbi1s-165" value="" style="shape=partialRectangle;collapsible=0;dropTarget=0;pointerEvents=0;fillColor=none;points=[[0,0.5],[1,0.5]];portConstraint=eastwest;top=0;left=0;right=0;bottom=0;" parent="PWjsfuIPjYbMQ2Njbi1s-117" vertex="1">
          <mxGeometry y="171" width="140" height="30" as="geometry" />
        </mxCell>
        <mxCell id="PWjsfuIPjYbMQ2Njbi1s-166" value="" style="shape=partialRectangle;overflow=hidden;connectable=0;fillColor=none;top=0;left=0;bottom=0;right=0;" parent="PWjsfuIPjYbMQ2Njbi1s-165" vertex="1">
          <mxGeometry width="30" height="30" as="geometry">
            <mxRectangle width="30" height="30" as="alternateBounds" />
          </mxGeometry>
        </mxCell>
        <mxCell id="PWjsfuIPjYbMQ2Njbi1s-167" value="gender" style="shape=partialRectangle;overflow=hidden;connectable=0;fillColor=none;top=0;left=0;bottom=0;right=0;align=left;spacingLeft=6;" parent="PWjsfuIPjYbMQ2Njbi1s-165" vertex="1">
          <mxGeometry x="30" width="110" height="30" as="geometry">
            <mxRectangle width="110" height="30" as="alternateBounds" />
          </mxGeometry>
        </mxCell>
        <mxCell id="PWjsfuIPjYbMQ2Njbi1s-168" value="EmergencyContact" style="shape=table;startSize=30;container=1;collapsible=1;childLayout=tableLayout;fixedRows=1;rowLines=0;fontStyle=1;align=center;resizeLast=1;" parent="1" vertex="1">
          <mxGeometry x="-519" y="428" width="140" height="249" as="geometry" />
        </mxCell>
        <mxCell id="PWjsfuIPjYbMQ2Njbi1s-169" value="" style="shape=partialRectangle;collapsible=0;dropTarget=0;pointerEvents=0;fillColor=none;points=[[0,0.5],[1,0.5]];portConstraint=eastwest;top=0;left=0;right=0;bottom=1;" parent="PWjsfuIPjYbMQ2Njbi1s-168" vertex="1">
          <mxGeometry y="30" width="140" height="30" as="geometry" />
        </mxCell>
        <mxCell id="PWjsfuIPjYbMQ2Njbi1s-170" value="PK" style="shape=partialRectangle;overflow=hidden;connectable=0;fillColor=none;top=0;left=0;bottom=0;right=0;fontStyle=1;" parent="PWjsfuIPjYbMQ2Njbi1s-169" vertex="1">
          <mxGeometry width="30" height="30" as="geometry">
            <mxRectangle width="30" height="30" as="alternateBounds" />
          </mxGeometry>
        </mxCell>
        <mxCell id="PWjsfuIPjYbMQ2Njbi1s-171" value="id" style="shape=partialRectangle;overflow=hidden;connectable=0;fillColor=none;top=0;left=0;bottom=0;right=0;align=left;spacingLeft=6;fontStyle=5;" parent="PWjsfuIPjYbMQ2Njbi1s-169" vertex="1">
          <mxGeometry x="30" width="110" height="30" as="geometry">
            <mxRectangle width="110" height="30" as="alternateBounds" />
          </mxGeometry>
        </mxCell>
        <mxCell id="PWjsfuIPjYbMQ2Njbi1s-175" value="" style="shape=partialRectangle;collapsible=0;dropTarget=0;pointerEvents=0;fillColor=none;points=[[0,0.5],[1,0.5]];portConstraint=eastwest;top=0;left=0;right=0;bottom=0;" parent="PWjsfuIPjYbMQ2Njbi1s-168" vertex="1">
          <mxGeometry y="60" width="140" height="30" as="geometry" />
        </mxCell>
        <mxCell id="PWjsfuIPjYbMQ2Njbi1s-176" value="FK1" style="shape=partialRectangle;overflow=hidden;connectable=0;fillColor=none;top=0;left=0;bottom=0;right=0;" parent="PWjsfuIPjYbMQ2Njbi1s-175" vertex="1">
          <mxGeometry width="30" height="30" as="geometry">
            <mxRectangle width="30" height="30" as="alternateBounds" />
          </mxGeometry>
        </mxCell>
        <mxCell id="PWjsfuIPjYbMQ2Njbi1s-177" value="donor_id" style="shape=partialRectangle;overflow=hidden;connectable=0;fillColor=none;top=0;left=0;bottom=0;right=0;align=left;spacingLeft=6;" parent="PWjsfuIPjYbMQ2Njbi1s-175" vertex="1">
          <mxGeometry x="30" width="110" height="30" as="geometry">
            <mxRectangle width="110" height="30" as="alternateBounds" />
          </mxGeometry>
        </mxCell>
        <mxCell id="11huZsw0YOGw-BMZvz2H-98" value="" style="shape=partialRectangle;collapsible=0;dropTarget=0;pointerEvents=0;fillColor=none;points=[[0,0.5],[1,0.5]];portConstraint=eastwest;top=0;left=0;right=0;bottom=0;" parent="PWjsfuIPjYbMQ2Njbi1s-168" vertex="1">
          <mxGeometry y="90" width="140" height="30" as="geometry" />
        </mxCell>
        <mxCell id="11huZsw0YOGw-BMZvz2H-99" value="FK2" style="shape=partialRectangle;overflow=hidden;connectable=0;fillColor=none;top=0;left=0;bottom=0;right=0;" parent="11huZsw0YOGw-BMZvz2H-98" vertex="1">
          <mxGeometry width="30" height="30" as="geometry">
            <mxRectangle width="30" height="30" as="alternateBounds" />
          </mxGeometry>
        </mxCell>
        <mxCell id="11huZsw0YOGw-BMZvz2H-100" value="relation_id" style="shape=partialRectangle;overflow=hidden;connectable=0;fillColor=none;top=0;left=0;bottom=0;right=0;align=left;spacingLeft=6;" parent="11huZsw0YOGw-BMZvz2H-98" vertex="1">
          <mxGeometry x="30" width="110" height="30" as="geometry">
            <mxRectangle width="110" height="30" as="alternateBounds" />
          </mxGeometry>
        </mxCell>
        <mxCell id="11huZsw0YOGw-BMZvz2H-101" value="" style="shape=partialRectangle;collapsible=0;dropTarget=0;pointerEvents=0;fillColor=none;points=[[0,0.5],[1,0.5]];portConstraint=eastwest;top=0;left=0;right=0;bottom=0;" parent="PWjsfuIPjYbMQ2Njbi1s-168" vertex="1">
          <mxGeometry y="120" width="140" height="30" as="geometry" />
        </mxCell>
        <mxCell id="11huZsw0YOGw-BMZvz2H-102" value="" style="shape=partialRectangle;overflow=hidden;connectable=0;fillColor=none;top=0;left=0;bottom=0;right=0;" parent="11huZsw0YOGw-BMZvz2H-101" vertex="1">
          <mxGeometry width="30" height="30" as="geometry">
            <mxRectangle width="30" height="30" as="alternateBounds" />
          </mxGeometry>
        </mxCell>
        <mxCell id="11huZsw0YOGw-BMZvz2H-103" value="name" style="shape=partialRectangle;overflow=hidden;connectable=0;fillColor=none;top=0;left=0;bottom=0;right=0;align=left;spacingLeft=6;" parent="11huZsw0YOGw-BMZvz2H-101" vertex="1">
          <mxGeometry x="30" width="110" height="30" as="geometry">
            <mxRectangle width="110" height="30" as="alternateBounds" />
          </mxGeometry>
        </mxCell>
        <mxCell id="PWjsfuIPjYbMQ2Njbi1s-181" value="" style="shape=partialRectangle;collapsible=0;dropTarget=0;pointerEvents=0;fillColor=none;points=[[0,0.5],[1,0.5]];portConstraint=eastwest;top=0;left=0;right=0;bottom=0;" parent="PWjsfuIPjYbMQ2Njbi1s-168" vertex="1">
          <mxGeometry y="150" width="140" height="30" as="geometry" />
        </mxCell>
        <mxCell id="PWjsfuIPjYbMQ2Njbi1s-182" value="" style="shape=partialRectangle;overflow=hidden;connectable=0;fillColor=none;top=0;left=0;bottom=0;right=0;" parent="PWjsfuIPjYbMQ2Njbi1s-181" vertex="1">
          <mxGeometry width="30" height="30" as="geometry">
            <mxRectangle width="30" height="30" as="alternateBounds" />
          </mxGeometry>
        </mxCell>
        <mxCell id="PWjsfuIPjYbMQ2Njbi1s-183" value="email" style="shape=partialRectangle;overflow=hidden;connectable=0;fillColor=none;top=0;left=0;bottom=0;right=0;align=left;spacingLeft=6;" parent="PWjsfuIPjYbMQ2Njbi1s-181" vertex="1">
          <mxGeometry x="30" width="110" height="30" as="geometry">
            <mxRectangle width="110" height="30" as="alternateBounds" />
          </mxGeometry>
        </mxCell>
        <mxCell id="PWjsfuIPjYbMQ2Njbi1s-184" value="" style="shape=partialRectangle;collapsible=0;dropTarget=0;pointerEvents=0;fillColor=none;points=[[0,0.5],[1,0.5]];portConstraint=eastwest;top=0;left=0;right=0;bottom=0;" parent="PWjsfuIPjYbMQ2Njbi1s-168" vertex="1">
          <mxGeometry y="180" width="140" height="30" as="geometry" />
        </mxCell>
        <mxCell id="PWjsfuIPjYbMQ2Njbi1s-185" value="" style="shape=partialRectangle;overflow=hidden;connectable=0;fillColor=none;top=0;left=0;bottom=0;right=0;" parent="PWjsfuIPjYbMQ2Njbi1s-184" vertex="1">
          <mxGeometry width="30" height="30" as="geometry">
            <mxRectangle width="30" height="30" as="alternateBounds" />
          </mxGeometry>
        </mxCell>
        <mxCell id="PWjsfuIPjYbMQ2Njbi1s-186" value="phone" style="shape=partialRectangle;overflow=hidden;connectable=0;fillColor=none;top=0;left=0;bottom=0;right=0;align=left;spacingLeft=6;" parent="PWjsfuIPjYbMQ2Njbi1s-184" vertex="1">
          <mxGeometry x="30" width="110" height="30" as="geometry">
            <mxRectangle width="110" height="30" as="alternateBounds" />
          </mxGeometry>
        </mxCell>
        <mxCell id="PWjsfuIPjYbMQ2Njbi1s-200" value="" style="shape=partialRectangle;collapsible=0;dropTarget=0;pointerEvents=0;fillColor=none;points=[[0,0.5],[1,0.5]];portConstraint=eastwest;top=0;left=0;right=0;bottom=0;" parent="PWjsfuIPjYbMQ2Njbi1s-168" vertex="1">
          <mxGeometry y="210" width="140" height="30" as="geometry" />
        </mxCell>
        <mxCell id="PWjsfuIPjYbMQ2Njbi1s-201" value="" style="shape=partialRectangle;overflow=hidden;connectable=0;fillColor=none;top=0;left=0;bottom=0;right=0;" parent="PWjsfuIPjYbMQ2Njbi1s-200" vertex="1">
          <mxGeometry width="30" height="30" as="geometry">
            <mxRectangle width="30" height="30" as="alternateBounds" />
          </mxGeometry>
        </mxCell>
        <mxCell id="PWjsfuIPjYbMQ2Njbi1s-202" value="address" style="shape=partialRectangle;overflow=hidden;connectable=0;fillColor=none;top=0;left=0;bottom=0;right=0;align=left;spacingLeft=6;" parent="PWjsfuIPjYbMQ2Njbi1s-200" vertex="1">
          <mxGeometry x="30" width="110" height="30" as="geometry">
            <mxRectangle width="110" height="30" as="alternateBounds" />
          </mxGeometry>
        </mxCell>
        <mxCell id="PWjsfuIPjYbMQ2Njbi1s-196" value="" style="edgeStyle=entityRelationEdgeStyle;fontSize=12;html=1;endArrow=ERoneToMany;startArrow=ERmandOne;rounded=0;" parent="1" source="PWjsfuIPjYbMQ2Njbi1s-118" target="PWjsfuIPjYbMQ2Njbi1s-175" edge="1">
          <mxGeometry width="100" height="100" relative="1" as="geometry">
            <mxPoint x="-263" y="657" as="sourcePoint" />
            <mxPoint x="-320" y="490" as="targetPoint" />
          </mxGeometry>
        </mxCell>
        <mxCell id="PWjsfuIPjYbMQ2Njbi1s-203" value="Relationship" style="shape=table;startSize=30;container=1;collapsible=1;childLayout=tableLayout;fixedRows=1;rowLines=0;fontStyle=1;align=center;resizeLast=1;" parent="1" vertex="1">
          <mxGeometry x="-698" y="488" width="120" height="100" as="geometry" />
        </mxCell>
        <mxCell id="PWjsfuIPjYbMQ2Njbi1s-204" value="" style="shape=partialRectangle;collapsible=0;dropTarget=0;pointerEvents=0;fillColor=none;points=[[0,0.5],[1,0.5]];portConstraint=eastwest;top=0;left=0;right=0;bottom=1;" parent="PWjsfuIPjYbMQ2Njbi1s-203" vertex="1">
          <mxGeometry y="30" width="120" height="30" as="geometry" />
        </mxCell>
        <mxCell id="PWjsfuIPjYbMQ2Njbi1s-205" value="PK" style="shape=partialRectangle;overflow=hidden;connectable=0;fillColor=none;top=0;left=0;bottom=0;right=0;fontStyle=1;" parent="PWjsfuIPjYbMQ2Njbi1s-204" vertex="1">
          <mxGeometry width="30" height="30" as="geometry">
            <mxRectangle width="30" height="30" as="alternateBounds" />
          </mxGeometry>
        </mxCell>
        <mxCell id="PWjsfuIPjYbMQ2Njbi1s-206" value="id" style="shape=partialRectangle;overflow=hidden;connectable=0;fillColor=none;top=0;left=0;bottom=0;right=0;align=left;spacingLeft=6;fontStyle=5;" parent="PWjsfuIPjYbMQ2Njbi1s-204" vertex="1">
          <mxGeometry x="30" width="90" height="30" as="geometry">
            <mxRectangle width="90" height="30" as="alternateBounds" />
          </mxGeometry>
        </mxCell>
        <mxCell id="PWjsfuIPjYbMQ2Njbi1s-207" value="" style="shape=partialRectangle;collapsible=0;dropTarget=0;pointerEvents=0;fillColor=none;points=[[0,0.5],[1,0.5]];portConstraint=eastwest;top=0;left=0;right=0;bottom=0;" parent="PWjsfuIPjYbMQ2Njbi1s-203" vertex="1">
          <mxGeometry y="60" width="120" height="30" as="geometry" />
        </mxCell>
        <mxCell id="PWjsfuIPjYbMQ2Njbi1s-208" value="" style="shape=partialRectangle;overflow=hidden;connectable=0;fillColor=none;top=0;left=0;bottom=0;right=0;" parent="PWjsfuIPjYbMQ2Njbi1s-207" vertex="1">
          <mxGeometry width="30" height="30" as="geometry">
            <mxRectangle width="30" height="30" as="alternateBounds" />
          </mxGeometry>
        </mxCell>
        <mxCell id="PWjsfuIPjYbMQ2Njbi1s-209" value="name" style="shape=partialRectangle;overflow=hidden;connectable=0;fillColor=none;top=0;left=0;bottom=0;right=0;align=left;spacingLeft=6;" parent="PWjsfuIPjYbMQ2Njbi1s-207" vertex="1">
          <mxGeometry x="30" width="90" height="30" as="geometry">
            <mxRectangle width="90" height="30" as="alternateBounds" />
          </mxGeometry>
        </mxCell>
        <mxCell id="PWjsfuIPjYbMQ2Njbi1s-210" value="" style="edgeStyle=entityRelationEdgeStyle;fontSize=12;html=1;endArrow=ERmandOne;startArrow=ERmandOne;rounded=0;" parent="1" source="PWjsfuIPjYbMQ2Njbi1s-204" edge="1">
          <mxGeometry width="100" height="100" relative="1" as="geometry">
            <mxPoint x="-473" y="590" as="sourcePoint" />
            <mxPoint x="-519" y="533" as="targetPoint" />
          </mxGeometry>
        </mxCell>
        <mxCell id="PWjsfuIPjYbMQ2Njbi1s-289" value="MedicalHistory" style="shape=table;startSize=30;container=1;collapsible=1;childLayout=tableLayout;fixedRows=1;rowLines=0;fontStyle=1;align=center;resizeLast=1;" parent="1" vertex="1">
          <mxGeometry x="-346" y="533" width="140" height="189" as="geometry" />
        </mxCell>
        <mxCell id="PWjsfuIPjYbMQ2Njbi1s-290" value="" style="shape=partialRectangle;collapsible=0;dropTarget=0;pointerEvents=0;fillColor=none;points=[[0,0.5],[1,0.5]];portConstraint=eastwest;top=0;left=0;right=0;bottom=1;" parent="PWjsfuIPjYbMQ2Njbi1s-289" vertex="1">
          <mxGeometry y="30" width="140" height="30" as="geometry" />
        </mxCell>
        <mxCell id="PWjsfuIPjYbMQ2Njbi1s-291" value="PK" style="shape=partialRectangle;overflow=hidden;connectable=0;fillColor=none;top=0;left=0;bottom=0;right=0;fontStyle=1;" parent="PWjsfuIPjYbMQ2Njbi1s-290" vertex="1">
          <mxGeometry width="30" height="30" as="geometry">
            <mxRectangle width="30" height="30" as="alternateBounds" />
          </mxGeometry>
        </mxCell>
        <mxCell id="PWjsfuIPjYbMQ2Njbi1s-292" value="id" style="shape=partialRectangle;overflow=hidden;connectable=0;fillColor=none;top=0;left=0;bottom=0;right=0;align=left;spacingLeft=6;fontStyle=5;" parent="PWjsfuIPjYbMQ2Njbi1s-290" vertex="1">
          <mxGeometry x="30" width="110" height="30" as="geometry">
            <mxRectangle width="110" height="30" as="alternateBounds" />
          </mxGeometry>
        </mxCell>
        <mxCell id="PWjsfuIPjYbMQ2Njbi1s-299" value="" style="shape=partialRectangle;collapsible=0;dropTarget=0;pointerEvents=0;fillColor=none;points=[[0,0.5],[1,0.5]];portConstraint=eastwest;top=0;left=0;right=0;bottom=0;" parent="PWjsfuIPjYbMQ2Njbi1s-289" vertex="1">
          <mxGeometry y="60" width="140" height="30" as="geometry" />
        </mxCell>
        <mxCell id="PWjsfuIPjYbMQ2Njbi1s-300" value="FK1" style="shape=partialRectangle;overflow=hidden;connectable=0;fillColor=none;top=0;left=0;bottom=0;right=0;" parent="PWjsfuIPjYbMQ2Njbi1s-299" vertex="1">
          <mxGeometry width="30" height="30" as="geometry">
            <mxRectangle width="30" height="30" as="alternateBounds" />
          </mxGeometry>
        </mxCell>
        <mxCell id="PWjsfuIPjYbMQ2Njbi1s-301" value="donor_id" style="shape=partialRectangle;overflow=hidden;connectable=0;fillColor=none;top=0;left=0;bottom=0;right=0;align=left;spacingLeft=6;" parent="PWjsfuIPjYbMQ2Njbi1s-299" vertex="1">
          <mxGeometry x="30" width="110" height="30" as="geometry">
            <mxRectangle width="110" height="30" as="alternateBounds" />
          </mxGeometry>
        </mxCell>
        <mxCell id="11huZsw0YOGw-BMZvz2H-95" value="" style="shape=partialRectangle;collapsible=0;dropTarget=0;pointerEvents=0;fillColor=none;points=[[0,0.5],[1,0.5]];portConstraint=eastwest;top=0;left=0;right=0;bottom=0;" parent="PWjsfuIPjYbMQ2Njbi1s-289" vertex="1">
          <mxGeometry y="90" width="140" height="30" as="geometry" />
        </mxCell>
        <mxCell id="11huZsw0YOGw-BMZvz2H-96" value="" style="shape=partialRectangle;overflow=hidden;connectable=0;fillColor=none;top=0;left=0;bottom=0;right=0;" parent="11huZsw0YOGw-BMZvz2H-95" vertex="1">
          <mxGeometry width="30" height="30" as="geometry">
            <mxRectangle width="30" height="30" as="alternateBounds" />
          </mxGeometry>
        </mxCell>
        <mxCell id="11huZsw0YOGw-BMZvz2H-97" value="condition" style="shape=partialRectangle;overflow=hidden;connectable=0;fillColor=none;top=0;left=0;bottom=0;right=0;align=left;spacingLeft=6;" parent="11huZsw0YOGw-BMZvz2H-95" vertex="1">
          <mxGeometry x="30" width="110" height="30" as="geometry">
            <mxRectangle width="110" height="30" as="alternateBounds" />
          </mxGeometry>
        </mxCell>
        <mxCell id="PWjsfuIPjYbMQ2Njbi1s-302" value="" style="shape=partialRectangle;collapsible=0;dropTarget=0;pointerEvents=0;fillColor=none;points=[[0,0.5],[1,0.5]];portConstraint=eastwest;top=0;left=0;right=0;bottom=0;" parent="PWjsfuIPjYbMQ2Njbi1s-289" vertex="1">
          <mxGeometry y="120" width="140" height="30" as="geometry" />
        </mxCell>
        <mxCell id="PWjsfuIPjYbMQ2Njbi1s-303" value="" style="shape=partialRectangle;overflow=hidden;connectable=0;fillColor=none;top=0;left=0;bottom=0;right=0;" parent="PWjsfuIPjYbMQ2Njbi1s-302" vertex="1">
          <mxGeometry width="30" height="30" as="geometry">
            <mxRectangle width="30" height="30" as="alternateBounds" />
          </mxGeometry>
        </mxCell>
        <mxCell id="PWjsfuIPjYbMQ2Njbi1s-304" value="diagnose_date" style="shape=partialRectangle;overflow=hidden;connectable=0;fillColor=none;top=0;left=0;bottom=0;right=0;align=left;spacingLeft=6;" parent="PWjsfuIPjYbMQ2Njbi1s-302" vertex="1">
          <mxGeometry x="30" width="110" height="30" as="geometry">
            <mxRectangle width="110" height="30" as="alternateBounds" />
          </mxGeometry>
        </mxCell>
        <mxCell id="PWjsfuIPjYbMQ2Njbi1s-308" value="" style="shape=partialRectangle;collapsible=0;dropTarget=0;pointerEvents=0;fillColor=none;points=[[0,0.5],[1,0.5]];portConstraint=eastwest;top=0;left=0;right=0;bottom=0;" parent="PWjsfuIPjYbMQ2Njbi1s-289" vertex="1">
          <mxGeometry y="150" width="140" height="30" as="geometry" />
        </mxCell>
        <mxCell id="PWjsfuIPjYbMQ2Njbi1s-309" value="" style="shape=partialRectangle;overflow=hidden;connectable=0;fillColor=none;top=0;left=0;bottom=0;right=0;" parent="PWjsfuIPjYbMQ2Njbi1s-308" vertex="1">
          <mxGeometry width="30" height="30" as="geometry">
            <mxRectangle width="30" height="30" as="alternateBounds" />
          </mxGeometry>
        </mxCell>
        <mxCell id="PWjsfuIPjYbMQ2Njbi1s-310" value="description" style="shape=partialRectangle;overflow=hidden;connectable=0;fillColor=none;top=0;left=0;bottom=0;right=0;align=left;spacingLeft=6;" parent="PWjsfuIPjYbMQ2Njbi1s-308" vertex="1">
          <mxGeometry x="30" width="110" height="30" as="geometry">
            <mxRectangle width="110" height="30" as="alternateBounds" />
          </mxGeometry>
        </mxCell>
        <mxCell id="PWjsfuIPjYbMQ2Njbi1s-312" value="Allergy" style="shape=table;startSize=30;container=1;collapsible=1;childLayout=tableLayout;fixedRows=1;rowLines=0;fontStyle=1;align=center;resizeLast=1;" parent="1" vertex="1">
          <mxGeometry x="-348" y="792" width="140" height="159" as="geometry" />
        </mxCell>
        <mxCell id="PWjsfuIPjYbMQ2Njbi1s-313" value="" style="shape=partialRectangle;collapsible=0;dropTarget=0;pointerEvents=0;fillColor=none;points=[[0,0.5],[1,0.5]];portConstraint=eastwest;top=0;left=0;right=0;bottom=1;" parent="PWjsfuIPjYbMQ2Njbi1s-312" vertex="1">
          <mxGeometry y="30" width="140" height="30" as="geometry" />
        </mxCell>
        <mxCell id="PWjsfuIPjYbMQ2Njbi1s-314" value="PK" style="shape=partialRectangle;overflow=hidden;connectable=0;fillColor=none;top=0;left=0;bottom=0;right=0;fontStyle=1;" parent="PWjsfuIPjYbMQ2Njbi1s-313" vertex="1">
          <mxGeometry width="30" height="30" as="geometry">
            <mxRectangle width="30" height="30" as="alternateBounds" />
          </mxGeometry>
        </mxCell>
        <mxCell id="PWjsfuIPjYbMQ2Njbi1s-315" value="id" style="shape=partialRectangle;overflow=hidden;connectable=0;fillColor=none;top=0;left=0;bottom=0;right=0;align=left;spacingLeft=6;fontStyle=5;" parent="PWjsfuIPjYbMQ2Njbi1s-313" vertex="1">
          <mxGeometry x="30" width="110" height="30" as="geometry">
            <mxRectangle width="110" height="30" as="alternateBounds" />
          </mxGeometry>
        </mxCell>
        <mxCell id="PWjsfuIPjYbMQ2Njbi1s-316" value="" style="shape=partialRectangle;collapsible=0;dropTarget=0;pointerEvents=0;fillColor=none;points=[[0,0.5],[1,0.5]];portConstraint=eastwest;top=0;left=0;right=0;bottom=1;" parent="PWjsfuIPjYbMQ2Njbi1s-312" vertex="1">
          <mxGeometry y="60" width="140" height="30" as="geometry" />
        </mxCell>
        <mxCell id="PWjsfuIPjYbMQ2Njbi1s-317" value="FK1" style="shape=partialRectangle;overflow=hidden;connectable=0;fillColor=none;top=0;left=0;bottom=0;right=0;fontStyle=1;" parent="PWjsfuIPjYbMQ2Njbi1s-316" vertex="1">
          <mxGeometry width="30" height="30" as="geometry">
            <mxRectangle width="30" height="30" as="alternateBounds" />
          </mxGeometry>
        </mxCell>
        <mxCell id="PWjsfuIPjYbMQ2Njbi1s-318" value="donor_id" style="shape=partialRectangle;overflow=hidden;connectable=0;fillColor=none;top=0;left=0;bottom=0;right=0;align=left;spacingLeft=6;fontStyle=5;" parent="PWjsfuIPjYbMQ2Njbi1s-316" vertex="1">
          <mxGeometry x="30" width="110" height="30" as="geometry">
            <mxRectangle width="110" height="30" as="alternateBounds" />
          </mxGeometry>
        </mxCell>
        <mxCell id="PWjsfuIPjYbMQ2Njbi1s-322" value="" style="shape=partialRectangle;collapsible=0;dropTarget=0;pointerEvents=0;fillColor=none;points=[[0,0.5],[1,0.5]];portConstraint=eastwest;top=0;left=0;right=0;bottom=0;" parent="PWjsfuIPjYbMQ2Njbi1s-312" vertex="1">
          <mxGeometry y="90" width="140" height="30" as="geometry" />
        </mxCell>
        <mxCell id="PWjsfuIPjYbMQ2Njbi1s-323" value="" style="shape=partialRectangle;overflow=hidden;connectable=0;fillColor=none;top=0;left=0;bottom=0;right=0;" parent="PWjsfuIPjYbMQ2Njbi1s-322" vertex="1">
          <mxGeometry width="30" height="30" as="geometry">
            <mxRectangle width="30" height="30" as="alternateBounds" />
          </mxGeometry>
        </mxCell>
        <mxCell id="PWjsfuIPjYbMQ2Njbi1s-324" value="allergen" style="shape=partialRectangle;overflow=hidden;connectable=0;fillColor=none;top=0;left=0;bottom=0;right=0;align=left;spacingLeft=6;" parent="PWjsfuIPjYbMQ2Njbi1s-322" vertex="1">
          <mxGeometry x="30" width="110" height="30" as="geometry">
            <mxRectangle width="110" height="30" as="alternateBounds" />
          </mxGeometry>
        </mxCell>
        <mxCell id="PWjsfuIPjYbMQ2Njbi1s-328" value="" style="shape=partialRectangle;collapsible=0;dropTarget=0;pointerEvents=0;fillColor=none;points=[[0,0.5],[1,0.5]];portConstraint=eastwest;top=0;left=0;right=0;bottom=0;" parent="PWjsfuIPjYbMQ2Njbi1s-312" vertex="1">
          <mxGeometry y="120" width="140" height="30" as="geometry" />
        </mxCell>
        <mxCell id="PWjsfuIPjYbMQ2Njbi1s-329" value="" style="shape=partialRectangle;overflow=hidden;connectable=0;fillColor=none;top=0;left=0;bottom=0;right=0;" parent="PWjsfuIPjYbMQ2Njbi1s-328" vertex="1">
          <mxGeometry width="30" height="30" as="geometry">
            <mxRectangle width="30" height="30" as="alternateBounds" />
          </mxGeometry>
        </mxCell>
        <mxCell id="PWjsfuIPjYbMQ2Njbi1s-330" value="reaction" style="shape=partialRectangle;overflow=hidden;connectable=0;fillColor=none;top=0;left=0;bottom=0;right=0;align=left;spacingLeft=6;" parent="PWjsfuIPjYbMQ2Njbi1s-328" vertex="1">
          <mxGeometry x="30" width="110" height="30" as="geometry">
            <mxRectangle width="110" height="30" as="alternateBounds" />
          </mxGeometry>
        </mxCell>
        <mxCell id="PWjsfuIPjYbMQ2Njbi1s-331" value="" style="edgeStyle=orthogonalEdgeStyle;fontSize=12;html=1;endArrow=ERzeroToMany;startArrow=ERmandOne;rounded=0;startFill=0;endFill=0;" parent="1" source="PWjsfuIPjYbMQ2Njbi1s-117" target="PWjsfuIPjYbMQ2Njbi1s-316" edge="1">
          <mxGeometry width="100" height="100" relative="1" as="geometry">
            <mxPoint x="-90" y="450" as="sourcePoint" />
            <mxPoint x="-333" y="792" as="targetPoint" />
          </mxGeometry>
        </mxCell>
        <mxCell id="PWjsfuIPjYbMQ2Njbi1s-332" value="Donation" style="shape=table;startSize=30;container=1;collapsible=1;childLayout=tableLayout;fixedRows=1;rowLines=0;fontStyle=1;align=center;resizeLast=1;" parent="1" vertex="1">
          <mxGeometry x="110" y="427" width="120" height="220" as="geometry" />
        </mxCell>
        <mxCell id="PWjsfuIPjYbMQ2Njbi1s-333" value="" style="shape=partialRectangle;collapsible=0;dropTarget=0;pointerEvents=0;fillColor=none;points=[[0,0.5],[1,0.5]];portConstraint=eastwest;top=0;left=0;right=0;bottom=1;" parent="PWjsfuIPjYbMQ2Njbi1s-332" vertex="1">
          <mxGeometry y="30" width="120" height="30" as="geometry" />
        </mxCell>
        <mxCell id="PWjsfuIPjYbMQ2Njbi1s-334" value="PK" style="shape=partialRectangle;overflow=hidden;connectable=0;fillColor=none;top=0;left=0;bottom=0;right=0;fontStyle=1;" parent="PWjsfuIPjYbMQ2Njbi1s-333" vertex="1">
          <mxGeometry width="30" height="30" as="geometry">
            <mxRectangle width="30" height="30" as="alternateBounds" />
          </mxGeometry>
        </mxCell>
        <mxCell id="PWjsfuIPjYbMQ2Njbi1s-335" value="id" style="shape=partialRectangle;overflow=hidden;connectable=0;fillColor=none;top=0;left=0;bottom=0;right=0;align=left;spacingLeft=6;fontStyle=5;" parent="PWjsfuIPjYbMQ2Njbi1s-333" vertex="1">
          <mxGeometry x="30" width="90" height="30" as="geometry">
            <mxRectangle width="90" height="30" as="alternateBounds" />
          </mxGeometry>
        </mxCell>
        <mxCell id="PWjsfuIPjYbMQ2Njbi1s-336" value="" style="shape=partialRectangle;collapsible=0;dropTarget=0;pointerEvents=0;fillColor=none;points=[[0,0.5],[1,0.5]];portConstraint=eastwest;top=0;left=0;right=0;bottom=0;" parent="PWjsfuIPjYbMQ2Njbi1s-332" vertex="1">
          <mxGeometry y="60" width="120" height="30" as="geometry" />
        </mxCell>
        <mxCell id="PWjsfuIPjYbMQ2Njbi1s-337" value="FK1" style="shape=partialRectangle;overflow=hidden;connectable=0;fillColor=none;top=0;left=0;bottom=0;right=0;" parent="PWjsfuIPjYbMQ2Njbi1s-336" vertex="1">
          <mxGeometry width="30" height="30" as="geometry">
            <mxRectangle width="30" height="30" as="alternateBounds" />
          </mxGeometry>
        </mxCell>
        <mxCell id="PWjsfuIPjYbMQ2Njbi1s-338" value="donor_id" style="shape=partialRectangle;overflow=hidden;connectable=0;fillColor=none;top=0;left=0;bottom=0;right=0;align=left;spacingLeft=6;" parent="PWjsfuIPjYbMQ2Njbi1s-336" vertex="1">
          <mxGeometry x="30" width="90" height="30" as="geometry">
            <mxRectangle width="90" height="30" as="alternateBounds" />
          </mxGeometry>
        </mxCell>
        <mxCell id="11huZsw0YOGw-BMZvz2H-33" value="" style="shape=partialRectangle;collapsible=0;dropTarget=0;pointerEvents=0;fillColor=none;points=[[0,0.5],[1,0.5]];portConstraint=eastwest;top=0;left=0;right=0;bottom=0;" parent="PWjsfuIPjYbMQ2Njbi1s-332" vertex="1">
          <mxGeometry y="90" width="120" height="30" as="geometry" />
        </mxCell>
        <mxCell id="11huZsw0YOGw-BMZvz2H-34" value="FK2" style="shape=partialRectangle;overflow=hidden;connectable=0;fillColor=none;top=0;left=0;bottom=0;right=0;" parent="11huZsw0YOGw-BMZvz2H-33" vertex="1">
          <mxGeometry width="30" height="30" as="geometry">
            <mxRectangle width="30" height="30" as="alternateBounds" />
          </mxGeometry>
        </mxCell>
        <mxCell id="11huZsw0YOGw-BMZvz2H-35" value="facilty_id" style="shape=partialRectangle;overflow=hidden;connectable=0;fillColor=none;top=0;left=0;bottom=0;right=0;align=left;spacingLeft=6;" parent="11huZsw0YOGw-BMZvz2H-33" vertex="1">
          <mxGeometry x="30" width="90" height="30" as="geometry">
            <mxRectangle width="90" height="30" as="alternateBounds" />
          </mxGeometry>
        </mxCell>
        <mxCell id="11huZsw0YOGw-BMZvz2H-36" value="" style="shape=partialRectangle;collapsible=0;dropTarget=0;pointerEvents=0;fillColor=none;points=[[0,0.5],[1,0.5]];portConstraint=eastwest;top=0;left=0;right=0;bottom=0;" parent="PWjsfuIPjYbMQ2Njbi1s-332" vertex="1">
          <mxGeometry y="120" width="120" height="30" as="geometry" />
        </mxCell>
        <mxCell id="11huZsw0YOGw-BMZvz2H-37" value="FK3" style="shape=partialRectangle;overflow=hidden;connectable=0;fillColor=none;top=0;left=0;bottom=0;right=0;" parent="11huZsw0YOGw-BMZvz2H-36" vertex="1">
          <mxGeometry width="30" height="30" as="geometry">
            <mxRectangle width="30" height="30" as="alternateBounds" />
          </mxGeometry>
        </mxCell>
        <mxCell id="11huZsw0YOGw-BMZvz2H-38" value="campaign_id" style="shape=partialRectangle;overflow=hidden;connectable=0;fillColor=none;top=0;left=0;bottom=0;right=0;align=left;spacingLeft=6;" parent="11huZsw0YOGw-BMZvz2H-36" vertex="1">
          <mxGeometry x="30" width="90" height="30" as="geometry">
            <mxRectangle width="90" height="30" as="alternateBounds" />
          </mxGeometry>
        </mxCell>
        <mxCell id="11huZsw0YOGw-BMZvz2H-30" value="" style="shape=partialRectangle;collapsible=0;dropTarget=0;pointerEvents=0;fillColor=none;points=[[0,0.5],[1,0.5]];portConstraint=eastwest;top=0;left=0;right=0;bottom=0;" parent="PWjsfuIPjYbMQ2Njbi1s-332" vertex="1">
          <mxGeometry y="150" width="120" height="30" as="geometry" />
        </mxCell>
        <mxCell id="11huZsw0YOGw-BMZvz2H-31" value="" style="shape=partialRectangle;overflow=hidden;connectable=0;fillColor=none;top=0;left=0;bottom=0;right=0;" parent="11huZsw0YOGw-BMZvz2H-30" vertex="1">
          <mxGeometry width="30" height="30" as="geometry">
            <mxRectangle width="30" height="30" as="alternateBounds" />
          </mxGeometry>
        </mxCell>
        <mxCell id="11huZsw0YOGw-BMZvz2H-32" value="date" style="shape=partialRectangle;overflow=hidden;connectable=0;fillColor=none;top=0;left=0;bottom=0;right=0;align=left;spacingLeft=6;" parent="11huZsw0YOGw-BMZvz2H-30" vertex="1">
          <mxGeometry x="30" width="90" height="30" as="geometry">
            <mxRectangle width="90" height="30" as="alternateBounds" />
          </mxGeometry>
        </mxCell>
        <mxCell id="PWjsfuIPjYbMQ2Njbi1s-369" value="" style="shape=partialRectangle;collapsible=0;dropTarget=0;pointerEvents=0;fillColor=none;points=[[0,0.5],[1,0.5]];portConstraint=eastwest;top=0;left=0;right=0;bottom=0;" parent="PWjsfuIPjYbMQ2Njbi1s-332" vertex="1">
          <mxGeometry y="180" width="120" height="30" as="geometry" />
        </mxCell>
        <mxCell id="PWjsfuIPjYbMQ2Njbi1s-370" value="" style="shape=partialRectangle;overflow=hidden;connectable=0;fillColor=none;top=0;left=0;bottom=0;right=0;" parent="PWjsfuIPjYbMQ2Njbi1s-369" vertex="1">
          <mxGeometry width="30" height="30" as="geometry">
            <mxRectangle width="30" height="30" as="alternateBounds" />
          </mxGeometry>
        </mxCell>
        <mxCell id="PWjsfuIPjYbMQ2Njbi1s-371" value="status" style="shape=partialRectangle;overflow=hidden;connectable=0;fillColor=none;top=0;left=0;bottom=0;right=0;align=left;spacingLeft=6;" parent="PWjsfuIPjYbMQ2Njbi1s-369" vertex="1">
          <mxGeometry x="30" width="90" height="30" as="geometry">
            <mxRectangle width="90" height="30" as="alternateBounds" />
          </mxGeometry>
        </mxCell>
        <mxCell id="PWjsfuIPjYbMQ2Njbi1s-347" value="BloodUnit" style="shape=table;startSize=30;container=1;collapsible=1;childLayout=tableLayout;fixedRows=1;rowLines=0;fontStyle=1;align=center;resizeLast=1;" parent="1" vertex="1">
          <mxGeometry x="272" y="630" width="181" height="310" as="geometry" />
        </mxCell>
        <mxCell id="PWjsfuIPjYbMQ2Njbi1s-348" value="" style="shape=partialRectangle;collapsible=0;dropTarget=0;pointerEvents=0;fillColor=none;points=[[0,0.5],[1,0.5]];portConstraint=eastwest;top=0;left=0;right=0;bottom=1;" parent="PWjsfuIPjYbMQ2Njbi1s-347" vertex="1">
          <mxGeometry y="30" width="181" height="30" as="geometry" />
        </mxCell>
        <mxCell id="PWjsfuIPjYbMQ2Njbi1s-349" value="PK" style="shape=partialRectangle;overflow=hidden;connectable=0;fillColor=none;top=0;left=0;bottom=0;right=0;fontStyle=1;" parent="PWjsfuIPjYbMQ2Njbi1s-348" vertex="1">
          <mxGeometry width="30" height="30" as="geometry">
            <mxRectangle width="30" height="30" as="alternateBounds" />
          </mxGeometry>
        </mxCell>
        <mxCell id="PWjsfuIPjYbMQ2Njbi1s-350" value="id" style="shape=partialRectangle;overflow=hidden;connectable=0;fillColor=none;top=0;left=0;bottom=0;right=0;align=left;spacingLeft=6;fontStyle=5;" parent="PWjsfuIPjYbMQ2Njbi1s-348" vertex="1">
          <mxGeometry x="30" width="151" height="30" as="geometry">
            <mxRectangle width="151" height="30" as="alternateBounds" />
          </mxGeometry>
        </mxCell>
        <mxCell id="PWjsfuIPjYbMQ2Njbi1s-354" value="" style="shape=partialRectangle;collapsible=0;dropTarget=0;pointerEvents=0;fillColor=none;points=[[0,0.5],[1,0.5]];portConstraint=eastwest;top=0;left=0;right=0;bottom=0;" parent="PWjsfuIPjYbMQ2Njbi1s-347" vertex="1">
          <mxGeometry y="60" width="181" height="30" as="geometry" />
        </mxCell>
        <mxCell id="PWjsfuIPjYbMQ2Njbi1s-355" value="FK1" style="shape=partialRectangle;overflow=hidden;connectable=0;fillColor=none;top=0;left=0;bottom=0;right=0;" parent="PWjsfuIPjYbMQ2Njbi1s-354" vertex="1">
          <mxGeometry width="30" height="30" as="geometry">
            <mxRectangle width="30" height="30" as="alternateBounds" />
          </mxGeometry>
        </mxCell>
        <mxCell id="PWjsfuIPjYbMQ2Njbi1s-356" value="donation_id" style="shape=partialRectangle;overflow=hidden;connectable=0;fillColor=none;top=0;left=0;bottom=0;right=0;align=left;spacingLeft=6;" parent="PWjsfuIPjYbMQ2Njbi1s-354" vertex="1">
          <mxGeometry x="30" width="151" height="30" as="geometry">
            <mxRectangle width="151" height="30" as="alternateBounds" />
          </mxGeometry>
        </mxCell>
        <mxCell id="11huZsw0YOGw-BMZvz2H-60" value="" style="shape=partialRectangle;collapsible=0;dropTarget=0;pointerEvents=0;fillColor=none;points=[[0,0.5],[1,0.5]];portConstraint=eastwest;top=0;left=0;right=0;bottom=0;" parent="PWjsfuIPjYbMQ2Njbi1s-347" vertex="1">
          <mxGeometry y="90" width="181" height="30" as="geometry" />
        </mxCell>
        <mxCell id="11huZsw0YOGw-BMZvz2H-61" value="FK2" style="shape=partialRectangle;overflow=hidden;connectable=0;fillColor=none;top=0;left=0;bottom=0;right=0;" parent="11huZsw0YOGw-BMZvz2H-60" vertex="1">
          <mxGeometry width="30" height="30" as="geometry">
            <mxRectangle width="30" height="30" as="alternateBounds" />
          </mxGeometry>
        </mxCell>
        <mxCell id="11huZsw0YOGw-BMZvz2H-62" value="component_id" style="shape=partialRectangle;overflow=hidden;connectable=0;fillColor=none;top=0;left=0;bottom=0;right=0;align=left;spacingLeft=6;" parent="11huZsw0YOGw-BMZvz2H-60" vertex="1">
          <mxGeometry x="30" width="151" height="30" as="geometry">
            <mxRectangle width="151" height="30" as="alternateBounds" />
          </mxGeometry>
        </mxCell>
        <mxCell id="11huZsw0YOGw-BMZvz2H-63" value="" style="shape=partialRectangle;collapsible=0;dropTarget=0;pointerEvents=0;fillColor=none;points=[[0,0.5],[1,0.5]];portConstraint=eastwest;top=0;left=0;right=0;bottom=0;" parent="PWjsfuIPjYbMQ2Njbi1s-347" vertex="1">
          <mxGeometry y="120" width="181" height="30" as="geometry" />
        </mxCell>
        <mxCell id="11huZsw0YOGw-BMZvz2H-64" value="FK3" style="shape=partialRectangle;overflow=hidden;connectable=0;fillColor=none;top=0;left=0;bottom=0;right=0;" parent="11huZsw0YOGw-BMZvz2H-63" vertex="1">
          <mxGeometry width="30" height="30" as="geometry">
            <mxRectangle width="30" height="30" as="alternateBounds" />
          </mxGeometry>
        </mxCell>
        <mxCell id="11huZsw0YOGw-BMZvz2H-65" value="blood_group_id" style="shape=partialRectangle;overflow=hidden;connectable=0;fillColor=none;top=0;left=0;bottom=0;right=0;align=left;spacingLeft=6;" parent="11huZsw0YOGw-BMZvz2H-63" vertex="1">
          <mxGeometry x="30" width="151" height="30" as="geometry">
            <mxRectangle width="151" height="30" as="alternateBounds" />
          </mxGeometry>
        </mxCell>
        <mxCell id="11huZsw0YOGw-BMZvz2H-105" value="" style="shape=partialRectangle;collapsible=0;dropTarget=0;pointerEvents=0;fillColor=none;points=[[0,0.5],[1,0.5]];portConstraint=eastwest;top=0;left=0;right=0;bottom=0;" parent="PWjsfuIPjYbMQ2Njbi1s-347" vertex="1">
          <mxGeometry y="150" width="181" height="30" as="geometry" />
        </mxCell>
        <mxCell id="11huZsw0YOGw-BMZvz2H-106" value="FK4" style="shape=partialRectangle;overflow=hidden;connectable=0;fillColor=none;top=0;left=0;bottom=0;right=0;" parent="11huZsw0YOGw-BMZvz2H-105" vertex="1">
          <mxGeometry width="30" height="30" as="geometry">
            <mxRectangle width="30" height="30" as="alternateBounds" />
          </mxGeometry>
        </mxCell>
        <mxCell id="11huZsw0YOGw-BMZvz2H-107" value="facility_id" style="shape=partialRectangle;overflow=hidden;connectable=0;fillColor=none;top=0;left=0;bottom=0;right=0;align=left;spacingLeft=6;" parent="11huZsw0YOGw-BMZvz2H-105" vertex="1">
          <mxGeometry x="30" width="151" height="30" as="geometry">
            <mxRectangle width="151" height="30" as="alternateBounds" />
          </mxGeometry>
        </mxCell>
        <mxCell id="11huZsw0YOGw-BMZvz2H-66" value="" style="shape=partialRectangle;collapsible=0;dropTarget=0;pointerEvents=0;fillColor=none;points=[[0,0.5],[1,0.5]];portConstraint=eastwest;top=0;left=0;right=0;bottom=0;" parent="PWjsfuIPjYbMQ2Njbi1s-347" vertex="1">
          <mxGeometry y="180" width="181" height="30" as="geometry" />
        </mxCell>
        <mxCell id="11huZsw0YOGw-BMZvz2H-67" value="" style="shape=partialRectangle;overflow=hidden;connectable=0;fillColor=none;top=0;left=0;bottom=0;right=0;" parent="11huZsw0YOGw-BMZvz2H-66" vertex="1">
          <mxGeometry width="30" height="30" as="geometry">
            <mxRectangle width="30" height="30" as="alternateBounds" />
          </mxGeometry>
        </mxCell>
        <mxCell id="11huZsw0YOGw-BMZvz2H-68" value="collection_date" style="shape=partialRectangle;overflow=hidden;connectable=0;fillColor=none;top=0;left=0;bottom=0;right=0;align=left;spacingLeft=6;" parent="11huZsw0YOGw-BMZvz2H-66" vertex="1">
          <mxGeometry x="30" width="151" height="30" as="geometry">
            <mxRectangle width="151" height="30" as="alternateBounds" />
          </mxGeometry>
        </mxCell>
        <mxCell id="PWjsfuIPjYbMQ2Njbi1s-401" value="" style="shape=partialRectangle;collapsible=0;dropTarget=0;pointerEvents=0;fillColor=none;points=[[0,0.5],[1,0.5]];portConstraint=eastwest;top=0;left=0;right=0;bottom=0;" parent="PWjsfuIPjYbMQ2Njbi1s-347" vertex="1">
          <mxGeometry y="210" width="181" height="30" as="geometry" />
        </mxCell>
        <mxCell id="PWjsfuIPjYbMQ2Njbi1s-402" value="" style="shape=partialRectangle;overflow=hidden;connectable=0;fillColor=none;top=0;left=0;bottom=0;right=0;" parent="PWjsfuIPjYbMQ2Njbi1s-401" vertex="1">
          <mxGeometry width="30" height="30" as="geometry">
            <mxRectangle width="30" height="30" as="alternateBounds" />
          </mxGeometry>
        </mxCell>
        <mxCell id="PWjsfuIPjYbMQ2Njbi1s-403" value="expiration_date" style="shape=partialRectangle;overflow=hidden;connectable=0;fillColor=none;top=0;left=0;bottom=0;right=0;align=left;spacingLeft=6;" parent="PWjsfuIPjYbMQ2Njbi1s-401" vertex="1">
          <mxGeometry x="30" width="151" height="30" as="geometry">
            <mxRectangle width="151" height="30" as="alternateBounds" />
          </mxGeometry>
        </mxCell>
        <mxCell id="PWjsfuIPjYbMQ2Njbi1s-420" value="" style="shape=partialRectangle;collapsible=0;dropTarget=0;pointerEvents=0;fillColor=none;points=[[0,0.5],[1,0.5]];portConstraint=eastwest;top=0;left=0;right=0;bottom=0;" parent="PWjsfuIPjYbMQ2Njbi1s-347" vertex="1">
          <mxGeometry y="240" width="181" height="30" as="geometry" />
        </mxCell>
        <mxCell id="PWjsfuIPjYbMQ2Njbi1s-421" value="" style="shape=partialRectangle;overflow=hidden;connectable=0;fillColor=none;top=0;left=0;bottom=0;right=0;" parent="PWjsfuIPjYbMQ2Njbi1s-420" vertex="1">
          <mxGeometry width="30" height="30" as="geometry">
            <mxRectangle width="30" height="30" as="alternateBounds" />
          </mxGeometry>
        </mxCell>
        <mxCell id="PWjsfuIPjYbMQ2Njbi1s-422" value="volume" style="shape=partialRectangle;overflow=hidden;connectable=0;fillColor=none;top=0;left=0;bottom=0;right=0;align=left;spacingLeft=6;" parent="PWjsfuIPjYbMQ2Njbi1s-420" vertex="1">
          <mxGeometry x="30" width="151" height="30" as="geometry">
            <mxRectangle width="151" height="30" as="alternateBounds" />
          </mxGeometry>
        </mxCell>
        <mxCell id="PWjsfuIPjYbMQ2Njbi1s-423" value="" style="shape=partialRectangle;collapsible=0;dropTarget=0;pointerEvents=0;fillColor=none;points=[[0,0.5],[1,0.5]];portConstraint=eastwest;top=0;left=0;right=0;bottom=0;" parent="PWjsfuIPjYbMQ2Njbi1s-347" vertex="1">
          <mxGeometry y="270" width="181" height="30" as="geometry" />
        </mxCell>
        <mxCell id="PWjsfuIPjYbMQ2Njbi1s-424" value="" style="shape=partialRectangle;overflow=hidden;connectable=0;fillColor=none;top=0;left=0;bottom=0;right=0;" parent="PWjsfuIPjYbMQ2Njbi1s-423" vertex="1">
          <mxGeometry width="30" height="30" as="geometry">
            <mxRectangle width="30" height="30" as="alternateBounds" />
          </mxGeometry>
        </mxCell>
        <mxCell id="PWjsfuIPjYbMQ2Njbi1s-425" value="status" style="shape=partialRectangle;overflow=hidden;connectable=0;fillColor=none;top=0;left=0;bottom=0;right=0;align=left;spacingLeft=6;" parent="PWjsfuIPjYbMQ2Njbi1s-423" vertex="1">
          <mxGeometry x="30" width="151" height="30" as="geometry">
            <mxRectangle width="151" height="30" as="alternateBounds" />
          </mxGeometry>
        </mxCell>
        <mxCell id="PWjsfuIPjYbMQ2Njbi1s-357" style="edgeStyle=orthogonalEdgeStyle;rounded=0;orthogonalLoop=1;jettySize=auto;html=1;endArrow=ERzeroToMany;endFill=0;startArrow=ERmandOne;startFill=0;" parent="1" source="PWjsfuIPjYbMQ2Njbi1s-118" target="PWjsfuIPjYbMQ2Njbi1s-336" edge="1">
          <mxGeometry relative="1" as="geometry">
            <mxPoint x="157" y="410" as="targetPoint" />
          </mxGeometry>
        </mxCell>
        <mxCell id="PWjsfuIPjYbMQ2Njbi1s-362" value="" style="edgeStyle=orthogonalEdgeStyle;fontSize=12;html=1;endArrow=ERzeroToMany;startArrow=ERmandOne;rounded=0;startFill=0;endFill=0;" parent="1" source="PWjsfuIPjYbMQ2Njbi1s-117" edge="1">
          <mxGeometry width="100" height="100" relative="1" as="geometry">
            <mxPoint x="-53" y="768" as="sourcePoint" />
            <mxPoint x="-206" y="608" as="targetPoint" />
          </mxGeometry>
        </mxCell>
        <mxCell id="PWjsfuIPjYbMQ2Njbi1s-368" style="rounded=0;orthogonalLoop=1;jettySize=auto;html=1;endArrow=ERmandOne;endFill=0;startArrow=ERzeroToOne;startFill=0;elbow=vertical;edgeStyle=orthogonalEdgeStyle;" parent="1" source="11huZsw0YOGw-BMZvz2H-33" target="PWjsfuIPjYbMQ2Njbi1s-30" edge="1">
          <mxGeometry relative="1" as="geometry">
            <mxPoint x="297" y="438" as="targetPoint" />
            <mxPoint x="260" y="550" as="sourcePoint" />
          </mxGeometry>
        </mxCell>
        <mxCell id="PWjsfuIPjYbMQ2Njbi1s-372" value="Component" style="shape=table;startSize=30;container=1;collapsible=1;childLayout=tableLayout;fixedRows=1;rowLines=0;fontStyle=1;align=center;resizeLast=1;" parent="1" vertex="1">
          <mxGeometry x="520" y="640" width="110" height="100" as="geometry" />
        </mxCell>
        <mxCell id="PWjsfuIPjYbMQ2Njbi1s-373" value="" style="shape=partialRectangle;collapsible=0;dropTarget=0;pointerEvents=0;fillColor=none;points=[[0,0.5],[1,0.5]];portConstraint=eastwest;top=0;left=0;right=0;bottom=1;" parent="PWjsfuIPjYbMQ2Njbi1s-372" vertex="1">
          <mxGeometry y="30" width="110" height="30" as="geometry" />
        </mxCell>
        <mxCell id="PWjsfuIPjYbMQ2Njbi1s-374" value="PK" style="shape=partialRectangle;overflow=hidden;connectable=0;fillColor=none;top=0;left=0;bottom=0;right=0;fontStyle=1;" parent="PWjsfuIPjYbMQ2Njbi1s-373" vertex="1">
          <mxGeometry width="30" height="30" as="geometry">
            <mxRectangle width="30" height="30" as="alternateBounds" />
          </mxGeometry>
        </mxCell>
        <mxCell id="PWjsfuIPjYbMQ2Njbi1s-375" value="id" style="shape=partialRectangle;overflow=hidden;connectable=0;fillColor=none;top=0;left=0;bottom=0;right=0;align=left;spacingLeft=6;fontStyle=5;" parent="PWjsfuIPjYbMQ2Njbi1s-373" vertex="1">
          <mxGeometry x="30" width="80" height="30" as="geometry">
            <mxRectangle width="80" height="30" as="alternateBounds" />
          </mxGeometry>
        </mxCell>
        <mxCell id="PWjsfuIPjYbMQ2Njbi1s-379" value="" style="shape=partialRectangle;collapsible=0;dropTarget=0;pointerEvents=0;fillColor=none;points=[[0,0.5],[1,0.5]];portConstraint=eastwest;top=0;left=0;right=0;bottom=0;" parent="PWjsfuIPjYbMQ2Njbi1s-372" vertex="1">
          <mxGeometry y="60" width="110" height="30" as="geometry" />
        </mxCell>
        <mxCell id="PWjsfuIPjYbMQ2Njbi1s-380" value="" style="shape=partialRectangle;overflow=hidden;connectable=0;fillColor=none;top=0;left=0;bottom=0;right=0;" parent="PWjsfuIPjYbMQ2Njbi1s-379" vertex="1">
          <mxGeometry width="30" height="30" as="geometry">
            <mxRectangle width="30" height="30" as="alternateBounds" />
          </mxGeometry>
        </mxCell>
        <mxCell id="PWjsfuIPjYbMQ2Njbi1s-381" value="name" style="shape=partialRectangle;overflow=hidden;connectable=0;fillColor=none;top=0;left=0;bottom=0;right=0;align=left;spacingLeft=6;" parent="PWjsfuIPjYbMQ2Njbi1s-379" vertex="1">
          <mxGeometry x="30" width="80" height="30" as="geometry">
            <mxRectangle width="80" height="30" as="alternateBounds" />
          </mxGeometry>
        </mxCell>
        <mxCell id="PWjsfuIPjYbMQ2Njbi1s-400" value="" style="edgeStyle=entityRelationEdgeStyle;fontSize=12;html=1;endArrow=ERmandOne;startArrow=ERmandOne;rounded=0;" parent="1" source="11huZsw0YOGw-BMZvz2H-60" target="PWjsfuIPjYbMQ2Njbi1s-373" edge="1">
          <mxGeometry width="100" height="100" relative="1" as="geometry">
            <mxPoint x="260" y="580" as="sourcePoint" />
            <mxPoint x="360" y="480" as="targetPoint" />
          </mxGeometry>
        </mxCell>
        <mxCell id="PWjsfuIPjYbMQ2Njbi1s-448" style="edgeStyle=orthogonalEdgeStyle;rounded=0;orthogonalLoop=1;jettySize=auto;html=1;startArrow=ERmandOne;startFill=0;endArrow=ERzeroToOne;endFill=0;" parent="1" source="PWjsfuIPjYbMQ2Njbi1s-347" target="PWjsfuIPjYbMQ2Njbi1s-426" edge="1">
          <mxGeometry relative="1" as="geometry" />
        </mxCell>
        <mxCell id="PWjsfuIPjYbMQ2Njbi1s-426" value=" Transfusion" style="shape=table;startSize=30;container=1;collapsible=1;childLayout=tableLayout;fixedRows=1;rowLines=0;fontStyle=1;align=center;resizeLast=1;" parent="1" vertex="1">
          <mxGeometry x="272" y="1041" width="181" height="190" as="geometry" />
        </mxCell>
        <mxCell id="PWjsfuIPjYbMQ2Njbi1s-427" value="" style="shape=partialRectangle;collapsible=0;dropTarget=0;pointerEvents=0;fillColor=none;points=[[0,0.5],[1,0.5]];portConstraint=eastwest;top=0;left=0;right=0;bottom=1;" parent="PWjsfuIPjYbMQ2Njbi1s-426" vertex="1">
          <mxGeometry y="30" width="181" height="30" as="geometry" />
        </mxCell>
        <mxCell id="PWjsfuIPjYbMQ2Njbi1s-428" value="PK" style="shape=partialRectangle;overflow=hidden;connectable=0;fillColor=none;top=0;left=0;bottom=0;right=0;fontStyle=1;" parent="PWjsfuIPjYbMQ2Njbi1s-427" vertex="1">
          <mxGeometry width="30" height="30" as="geometry">
            <mxRectangle width="30" height="30" as="alternateBounds" />
          </mxGeometry>
        </mxCell>
        <mxCell id="PWjsfuIPjYbMQ2Njbi1s-429" value="id" style="shape=partialRectangle;overflow=hidden;connectable=0;fillColor=none;top=0;left=0;bottom=0;right=0;align=left;spacingLeft=6;fontStyle=5;" parent="PWjsfuIPjYbMQ2Njbi1s-427" vertex="1">
          <mxGeometry x="30" width="151" height="30" as="geometry">
            <mxRectangle width="151" height="30" as="alternateBounds" />
          </mxGeometry>
        </mxCell>
        <mxCell id="PWjsfuIPjYbMQ2Njbi1s-436" value="" style="shape=partialRectangle;collapsible=0;dropTarget=0;pointerEvents=0;fillColor=none;points=[[0,0.5],[1,0.5]];portConstraint=eastwest;top=0;left=0;right=0;bottom=0;" parent="PWjsfuIPjYbMQ2Njbi1s-426" vertex="1">
          <mxGeometry y="60" width="181" height="30" as="geometry" />
        </mxCell>
        <mxCell id="PWjsfuIPjYbMQ2Njbi1s-437" value="FK1" style="shape=partialRectangle;overflow=hidden;connectable=0;fillColor=none;top=0;left=0;bottom=0;right=0;" parent="PWjsfuIPjYbMQ2Njbi1s-436" vertex="1">
          <mxGeometry width="30" height="30" as="geometry">
            <mxRectangle width="30" height="30" as="alternateBounds" />
          </mxGeometry>
        </mxCell>
        <mxCell id="PWjsfuIPjYbMQ2Njbi1s-438" value="blood_unit _id" style="shape=partialRectangle;overflow=hidden;connectable=0;fillColor=none;top=0;left=0;bottom=0;right=0;align=left;spacingLeft=6;" parent="PWjsfuIPjYbMQ2Njbi1s-436" vertex="1">
          <mxGeometry x="30" width="151" height="30" as="geometry">
            <mxRectangle width="151" height="30" as="alternateBounds" />
          </mxGeometry>
        </mxCell>
        <mxCell id="11huZsw0YOGw-BMZvz2H-73" value="" style="shape=partialRectangle;collapsible=0;dropTarget=0;pointerEvents=0;fillColor=none;points=[[0,0.5],[1,0.5]];portConstraint=eastwest;top=0;left=0;right=0;bottom=0;" parent="PWjsfuIPjYbMQ2Njbi1s-426" vertex="1">
          <mxGeometry y="90" width="181" height="30" as="geometry" />
        </mxCell>
        <mxCell id="11huZsw0YOGw-BMZvz2H-74" value="FK2" style="shape=partialRectangle;overflow=hidden;connectable=0;fillColor=none;top=0;left=0;bottom=0;right=0;" parent="11huZsw0YOGw-BMZvz2H-73" vertex="1">
          <mxGeometry width="30" height="30" as="geometry">
            <mxRectangle width="30" height="30" as="alternateBounds" />
          </mxGeometry>
        </mxCell>
        <mxCell id="11huZsw0YOGw-BMZvz2H-75" value="recipient_id" style="shape=partialRectangle;overflow=hidden;connectable=0;fillColor=none;top=0;left=0;bottom=0;right=0;align=left;spacingLeft=6;" parent="11huZsw0YOGw-BMZvz2H-73" vertex="1">
          <mxGeometry x="30" width="151" height="30" as="geometry">
            <mxRectangle width="151" height="30" as="alternateBounds" />
          </mxGeometry>
        </mxCell>
        <mxCell id="11huZsw0YOGw-BMZvz2H-76" value="" style="shape=partialRectangle;collapsible=0;dropTarget=0;pointerEvents=0;fillColor=none;points=[[0,0.5],[1,0.5]];portConstraint=eastwest;top=0;left=0;right=0;bottom=0;" parent="PWjsfuIPjYbMQ2Njbi1s-426" vertex="1">
          <mxGeometry y="120" width="181" height="30" as="geometry" />
        </mxCell>
        <mxCell id="11huZsw0YOGw-BMZvz2H-77" value="" style="shape=partialRectangle;overflow=hidden;connectable=0;fillColor=none;top=0;left=0;bottom=0;right=0;" parent="11huZsw0YOGw-BMZvz2H-76" vertex="1">
          <mxGeometry width="30" height="30" as="geometry">
            <mxRectangle width="30" height="30" as="alternateBounds" />
          </mxGeometry>
        </mxCell>
        <mxCell id="11huZsw0YOGw-BMZvz2H-78" value="date" style="shape=partialRectangle;overflow=hidden;connectable=0;fillColor=none;top=0;left=0;bottom=0;right=0;align=left;spacingLeft=6;" parent="11huZsw0YOGw-BMZvz2H-76" vertex="1">
          <mxGeometry x="30" width="151" height="30" as="geometry">
            <mxRectangle width="151" height="30" as="alternateBounds" />
          </mxGeometry>
        </mxCell>
        <mxCell id="PWjsfuIPjYbMQ2Njbi1s-445" value="" style="shape=partialRectangle;collapsible=0;dropTarget=0;pointerEvents=0;fillColor=none;points=[[0,0.5],[1,0.5]];portConstraint=eastwest;top=0;left=0;right=0;bottom=0;" parent="PWjsfuIPjYbMQ2Njbi1s-426" vertex="1">
          <mxGeometry y="150" width="181" height="30" as="geometry" />
        </mxCell>
        <mxCell id="PWjsfuIPjYbMQ2Njbi1s-446" value="" style="shape=partialRectangle;overflow=hidden;connectable=0;fillColor=none;top=0;left=0;bottom=0;right=0;" parent="PWjsfuIPjYbMQ2Njbi1s-445" vertex="1">
          <mxGeometry width="30" height="30" as="geometry">
            <mxRectangle width="30" height="30" as="alternateBounds" />
          </mxGeometry>
        </mxCell>
        <mxCell id="PWjsfuIPjYbMQ2Njbi1s-447" value="outcome" style="shape=partialRectangle;overflow=hidden;connectable=0;fillColor=none;top=0;left=0;bottom=0;right=0;align=left;spacingLeft=6;" parent="PWjsfuIPjYbMQ2Njbi1s-445" vertex="1">
          <mxGeometry x="30" width="151" height="30" as="geometry">
            <mxRectangle width="151" height="30" as="alternateBounds" />
          </mxGeometry>
        </mxCell>
        <mxCell id="PWjsfuIPjYbMQ2Njbi1s-452" value="Recipient" style="shape=table;startSize=30;container=1;collapsible=1;childLayout=tableLayout;fixedRows=1;rowLines=0;fontStyle=1;align=center;resizeLast=1;" parent="1" vertex="1">
          <mxGeometry x="36.5" y="1030" width="181" height="130" as="geometry" />
        </mxCell>
        <mxCell id="PWjsfuIPjYbMQ2Njbi1s-453" value="" style="shape=partialRectangle;collapsible=0;dropTarget=0;pointerEvents=0;fillColor=none;points=[[0,0.5],[1,0.5]];portConstraint=eastwest;top=0;left=0;right=0;bottom=1;" parent="PWjsfuIPjYbMQ2Njbi1s-452" vertex="1">
          <mxGeometry y="30" width="181" height="30" as="geometry" />
        </mxCell>
        <mxCell id="PWjsfuIPjYbMQ2Njbi1s-454" value="PK" style="shape=partialRectangle;overflow=hidden;connectable=0;fillColor=none;top=0;left=0;bottom=0;right=0;fontStyle=1;" parent="PWjsfuIPjYbMQ2Njbi1s-453" vertex="1">
          <mxGeometry width="30" height="30" as="geometry">
            <mxRectangle width="30" height="30" as="alternateBounds" />
          </mxGeometry>
        </mxCell>
        <mxCell id="PWjsfuIPjYbMQ2Njbi1s-455" value="id" style="shape=partialRectangle;overflow=hidden;connectable=0;fillColor=none;top=0;left=0;bottom=0;right=0;align=left;spacingLeft=6;fontStyle=5;" parent="PWjsfuIPjYbMQ2Njbi1s-453" vertex="1">
          <mxGeometry x="30" width="151" height="30" as="geometry">
            <mxRectangle width="151" height="30" as="alternateBounds" />
          </mxGeometry>
        </mxCell>
        <mxCell id="PWjsfuIPjYbMQ2Njbi1s-462" value="" style="shape=partialRectangle;collapsible=0;dropTarget=0;pointerEvents=0;fillColor=none;points=[[0,0.5],[1,0.5]];portConstraint=eastwest;top=0;left=0;right=0;bottom=0;" parent="PWjsfuIPjYbMQ2Njbi1s-452" vertex="1">
          <mxGeometry y="60" width="181" height="30" as="geometry" />
        </mxCell>
        <mxCell id="PWjsfuIPjYbMQ2Njbi1s-463" value="FK1" style="shape=partialRectangle;overflow=hidden;connectable=0;fillColor=none;top=0;left=0;bottom=0;right=0;" parent="PWjsfuIPjYbMQ2Njbi1s-462" vertex="1">
          <mxGeometry width="30" height="30" as="geometry">
            <mxRectangle width="30" height="30" as="alternateBounds" />
          </mxGeometry>
        </mxCell>
        <mxCell id="PWjsfuIPjYbMQ2Njbi1s-464" value="blood group_id" style="shape=partialRectangle;overflow=hidden;connectable=0;fillColor=none;top=0;left=0;bottom=0;right=0;align=left;spacingLeft=6;" parent="PWjsfuIPjYbMQ2Njbi1s-462" vertex="1">
          <mxGeometry x="30" width="151" height="30" as="geometry">
            <mxRectangle width="151" height="30" as="alternateBounds" />
          </mxGeometry>
        </mxCell>
        <mxCell id="PWjsfuIPjYbMQ2Njbi1s-468" value="" style="shape=partialRectangle;collapsible=0;dropTarget=0;pointerEvents=0;fillColor=none;points=[[0,0.5],[1,0.5]];portConstraint=eastwest;top=0;left=0;right=0;bottom=0;" parent="PWjsfuIPjYbMQ2Njbi1s-452" vertex="1">
          <mxGeometry y="90" width="181" height="30" as="geometry" />
        </mxCell>
        <mxCell id="PWjsfuIPjYbMQ2Njbi1s-469" value="" style="shape=partialRectangle;overflow=hidden;connectable=0;fillColor=none;top=0;left=0;bottom=0;right=0;" parent="PWjsfuIPjYbMQ2Njbi1s-468" vertex="1">
          <mxGeometry width="30" height="30" as="geometry">
            <mxRectangle width="30" height="30" as="alternateBounds" />
          </mxGeometry>
        </mxCell>
        <mxCell id="PWjsfuIPjYbMQ2Njbi1s-470" value="name" style="shape=partialRectangle;overflow=hidden;connectable=0;fillColor=none;top=0;left=0;bottom=0;right=0;align=left;spacingLeft=6;" parent="PWjsfuIPjYbMQ2Njbi1s-468" vertex="1">
          <mxGeometry x="30" width="151" height="30" as="geometry">
            <mxRectangle width="151" height="30" as="alternateBounds" />
          </mxGeometry>
        </mxCell>
        <mxCell id="PWjsfuIPjYbMQ2Njbi1s-471" style="edgeStyle=orthogonalEdgeStyle;rounded=0;orthogonalLoop=1;jettySize=auto;html=1;startArrow=ERzeroToMany;startFill=0;endArrow=ERmandOne;endFill=0;" parent="1" source="11huZsw0YOGw-BMZvz2H-73" target="PWjsfuIPjYbMQ2Njbi1s-462" edge="1">
          <mxGeometry relative="1" as="geometry">
            <mxPoint x="373" y="972" as="sourcePoint" />
            <mxPoint x="373" y="890" as="targetPoint" />
          </mxGeometry>
        </mxCell>
        <mxCell id="PWjsfuIPjYbMQ2Njbi1s-472" value="" style="fontSize=12;html=1;endArrow=ERzeroToOne;startArrow=ERmandOne;rounded=0;entryX=0.5;entryY=0;entryDx=0;entryDy=0;exitX=0.5;exitY=1;exitDx=0;exitDy=0;endFill=0;" parent="1" source="PWjsfuIPjYbMQ2Njbi1s-85" target="PWjsfuIPjYbMQ2Njbi1s-452" edge="1">
          <mxGeometry width="100" height="100" relative="1" as="geometry">
            <mxPoint x="30" y="970" as="sourcePoint" />
            <mxPoint x="-70" y="1070" as="targetPoint" />
          </mxGeometry>
        </mxCell>
        <mxCell id="AqpXS15bqgrEqTLivbJl-1" value="Campaingn" style="shape=table;startSize=30;container=1;collapsible=1;childLayout=tableLayout;fixedRows=1;rowLines=0;fontStyle=1;align=center;resizeLast=1;" parent="1" vertex="1">
          <mxGeometry x="96.75" y="-1" width="172.5" height="190" as="geometry" />
        </mxCell>
        <mxCell id="AqpXS15bqgrEqTLivbJl-2" value="" style="shape=partialRectangle;collapsible=0;dropTarget=0;pointerEvents=0;fillColor=none;points=[[0,0.5],[1,0.5]];portConstraint=eastwest;top=0;left=0;right=0;bottom=1;" parent="AqpXS15bqgrEqTLivbJl-1" vertex="1">
          <mxGeometry y="30" width="172.5" height="30" as="geometry" />
        </mxCell>
        <mxCell id="AqpXS15bqgrEqTLivbJl-3" value="PK" style="shape=partialRectangle;overflow=hidden;connectable=0;fillColor=none;top=0;left=0;bottom=0;right=0;fontStyle=1;" parent="AqpXS15bqgrEqTLivbJl-2" vertex="1">
          <mxGeometry width="30" height="30" as="geometry">
            <mxRectangle width="30" height="30" as="alternateBounds" />
          </mxGeometry>
        </mxCell>
        <mxCell id="AqpXS15bqgrEqTLivbJl-4" value="id" style="shape=partialRectangle;overflow=hidden;connectable=0;fillColor=none;top=0;left=0;bottom=0;right=0;align=left;spacingLeft=6;fontStyle=5;" parent="AqpXS15bqgrEqTLivbJl-2" vertex="1">
          <mxGeometry x="30" width="142.5" height="30" as="geometry">
            <mxRectangle width="142.5" height="30" as="alternateBounds" />
          </mxGeometry>
        </mxCell>
        <mxCell id="AqpXS15bqgrEqTLivbJl-11" value="" style="shape=partialRectangle;collapsible=0;dropTarget=0;pointerEvents=0;fillColor=none;points=[[0,0.5],[1,0.5]];portConstraint=eastwest;top=0;left=0;right=0;bottom=0;" parent="AqpXS15bqgrEqTLivbJl-1" vertex="1">
          <mxGeometry y="60" width="172.5" height="30" as="geometry" />
        </mxCell>
        <mxCell id="AqpXS15bqgrEqTLivbJl-12" value="FK1" style="shape=partialRectangle;overflow=hidden;connectable=0;fillColor=none;top=0;left=0;bottom=0;right=0;" parent="AqpXS15bqgrEqTLivbJl-11" vertex="1">
          <mxGeometry width="30" height="30" as="geometry">
            <mxRectangle width="30" height="30" as="alternateBounds" />
          </mxGeometry>
        </mxCell>
        <mxCell id="AqpXS15bqgrEqTLivbJl-13" value="city_id" style="shape=partialRectangle;overflow=hidden;connectable=0;fillColor=none;top=0;left=0;bottom=0;right=0;align=left;spacingLeft=6;" parent="AqpXS15bqgrEqTLivbJl-11" vertex="1">
          <mxGeometry x="30" width="142.5" height="30" as="geometry">
            <mxRectangle width="142.5" height="30" as="alternateBounds" />
          </mxGeometry>
        </mxCell>
        <mxCell id="11huZsw0YOGw-BMZvz2H-39" value="" style="shape=partialRectangle;collapsible=0;dropTarget=0;pointerEvents=0;fillColor=none;points=[[0,0.5],[1,0.5]];portConstraint=eastwest;top=0;left=0;right=0;bottom=0;" parent="AqpXS15bqgrEqTLivbJl-1" vertex="1">
          <mxGeometry y="90" width="172.5" height="30" as="geometry" />
        </mxCell>
        <mxCell id="11huZsw0YOGw-BMZvz2H-40" value="" style="shape=partialRectangle;overflow=hidden;connectable=0;fillColor=none;top=0;left=0;bottom=0;right=0;" parent="11huZsw0YOGw-BMZvz2H-39" vertex="1">
          <mxGeometry width="30" height="30" as="geometry">
            <mxRectangle width="30" height="30" as="alternateBounds" />
          </mxGeometry>
        </mxCell>
        <mxCell id="11huZsw0YOGw-BMZvz2H-41" value="title" style="shape=partialRectangle;overflow=hidden;connectable=0;fillColor=none;top=0;left=0;bottom=0;right=0;align=left;spacingLeft=6;" parent="11huZsw0YOGw-BMZvz2H-39" vertex="1">
          <mxGeometry x="30" width="142.5" height="30" as="geometry">
            <mxRectangle width="142.5" height="30" as="alternateBounds" />
          </mxGeometry>
        </mxCell>
        <mxCell id="11huZsw0YOGw-BMZvz2H-27" value="" style="shape=partialRectangle;collapsible=0;dropTarget=0;pointerEvents=0;fillColor=none;points=[[0,0.5],[1,0.5]];portConstraint=eastwest;top=0;left=0;right=0;bottom=0;" parent="AqpXS15bqgrEqTLivbJl-1" vertex="1">
          <mxGeometry y="120" width="172.5" height="30" as="geometry" />
        </mxCell>
        <mxCell id="11huZsw0YOGw-BMZvz2H-28" value="" style="shape=partialRectangle;overflow=hidden;connectable=0;fillColor=none;top=0;left=0;bottom=0;right=0;" parent="11huZsw0YOGw-BMZvz2H-27" vertex="1">
          <mxGeometry width="30" height="30" as="geometry">
            <mxRectangle width="30" height="30" as="alternateBounds" />
          </mxGeometry>
        </mxCell>
        <mxCell id="11huZsw0YOGw-BMZvz2H-29" value="start_datetime" style="shape=partialRectangle;overflow=hidden;connectable=0;fillColor=none;top=0;left=0;bottom=0;right=0;align=left;spacingLeft=6;" parent="11huZsw0YOGw-BMZvz2H-27" vertex="1">
          <mxGeometry x="30" width="142.5" height="30" as="geometry">
            <mxRectangle width="142.5" height="30" as="alternateBounds" />
          </mxGeometry>
        </mxCell>
        <mxCell id="AqpXS15bqgrEqTLivbJl-14" value="" style="shape=partialRectangle;collapsible=0;dropTarget=0;pointerEvents=0;fillColor=none;points=[[0,0.5],[1,0.5]];portConstraint=eastwest;top=0;left=0;right=0;bottom=0;" parent="AqpXS15bqgrEqTLivbJl-1" vertex="1">
          <mxGeometry y="150" width="172.5" height="30" as="geometry" />
        </mxCell>
        <mxCell id="AqpXS15bqgrEqTLivbJl-15" value="" style="shape=partialRectangle;overflow=hidden;connectable=0;fillColor=none;top=0;left=0;bottom=0;right=0;" parent="AqpXS15bqgrEqTLivbJl-14" vertex="1">
          <mxGeometry width="30" height="30" as="geometry">
            <mxRectangle width="30" height="30" as="alternateBounds" />
          </mxGeometry>
        </mxCell>
        <mxCell id="AqpXS15bqgrEqTLivbJl-16" value="end_datetime" style="shape=partialRectangle;overflow=hidden;connectable=0;fillColor=none;top=0;left=0;bottom=0;right=0;align=left;spacingLeft=6;" parent="AqpXS15bqgrEqTLivbJl-14" vertex="1">
          <mxGeometry x="30" width="142.5" height="30" as="geometry">
            <mxRectangle width="142.5" height="30" as="alternateBounds" />
          </mxGeometry>
        </mxCell>
        <mxCell id="AqpXS15bqgrEqTLivbJl-17" value="CampaingnOrganization" style="shape=table;startSize=30;container=1;collapsible=1;childLayout=tableLayout;fixedRows=1;rowLines=0;fontStyle=1;align=center;resizeLast=1;" parent="1" vertex="1">
          <mxGeometry x="-136" y="164" width="172.5" height="130" as="geometry" />
        </mxCell>
        <mxCell id="AqpXS15bqgrEqTLivbJl-18" value="" style="shape=partialRectangle;collapsible=0;dropTarget=0;pointerEvents=0;fillColor=none;points=[[0,0.5],[1,0.5]];portConstraint=eastwest;top=0;left=0;right=0;bottom=1;" parent="AqpXS15bqgrEqTLivbJl-17" vertex="1">
          <mxGeometry y="30" width="172.5" height="30" as="geometry" />
        </mxCell>
        <mxCell id="AqpXS15bqgrEqTLivbJl-19" value="PK" style="shape=partialRectangle;overflow=hidden;connectable=0;fillColor=none;top=0;left=0;bottom=0;right=0;fontStyle=1;" parent="AqpXS15bqgrEqTLivbJl-18" vertex="1">
          <mxGeometry width="30" height="30" as="geometry">
            <mxRectangle width="30" height="30" as="alternateBounds" />
          </mxGeometry>
        </mxCell>
        <mxCell id="AqpXS15bqgrEqTLivbJl-20" value="id" style="shape=partialRectangle;overflow=hidden;connectable=0;fillColor=none;top=0;left=0;bottom=0;right=0;align=left;spacingLeft=6;fontStyle=5;" parent="AqpXS15bqgrEqTLivbJl-18" vertex="1">
          <mxGeometry x="30" width="142.5" height="30" as="geometry">
            <mxRectangle width="142.5" height="30" as="alternateBounds" />
          </mxGeometry>
        </mxCell>
        <mxCell id="AqpXS15bqgrEqTLivbJl-24" value="" style="shape=partialRectangle;collapsible=0;dropTarget=0;pointerEvents=0;fillColor=none;points=[[0,0.5],[1,0.5]];portConstraint=eastwest;top=0;left=0;right=0;bottom=0;" parent="AqpXS15bqgrEqTLivbJl-17" vertex="1">
          <mxGeometry y="60" width="172.5" height="30" as="geometry" />
        </mxCell>
        <mxCell id="AqpXS15bqgrEqTLivbJl-25" value="" style="shape=partialRectangle;overflow=hidden;connectable=0;fillColor=none;top=0;left=0;bottom=0;right=0;" parent="AqpXS15bqgrEqTLivbJl-24" vertex="1">
          <mxGeometry width="30" height="30" as="geometry">
            <mxRectangle width="30" height="30" as="alternateBounds" />
          </mxGeometry>
        </mxCell>
        <mxCell id="AqpXS15bqgrEqTLivbJl-26" value="campaingn_id" style="shape=partialRectangle;overflow=hidden;connectable=0;fillColor=none;top=0;left=0;bottom=0;right=0;align=left;spacingLeft=6;" parent="AqpXS15bqgrEqTLivbJl-24" vertex="1">
          <mxGeometry x="30" width="142.5" height="30" as="geometry">
            <mxRectangle width="142.5" height="30" as="alternateBounds" />
          </mxGeometry>
        </mxCell>
        <mxCell id="11huZsw0YOGw-BMZvz2H-20" value="" style="shape=partialRectangle;collapsible=0;dropTarget=0;pointerEvents=0;fillColor=none;points=[[0,0.5],[1,0.5]];portConstraint=eastwest;top=0;left=0;right=0;bottom=0;" parent="AqpXS15bqgrEqTLivbJl-17" vertex="1">
          <mxGeometry y="90" width="172.5" height="30" as="geometry" />
        </mxCell>
        <mxCell id="11huZsw0YOGw-BMZvz2H-21" value="" style="shape=partialRectangle;overflow=hidden;connectable=0;fillColor=none;top=0;left=0;bottom=0;right=0;" parent="11huZsw0YOGw-BMZvz2H-20" vertex="1">
          <mxGeometry width="30" height="30" as="geometry">
            <mxRectangle width="30" height="30" as="alternateBounds" />
          </mxGeometry>
        </mxCell>
        <mxCell id="11huZsw0YOGw-BMZvz2H-22" value="organization_id" style="shape=partialRectangle;overflow=hidden;connectable=0;fillColor=none;top=0;left=0;bottom=0;right=0;align=left;spacingLeft=6;" parent="11huZsw0YOGw-BMZvz2H-20" vertex="1">
          <mxGeometry x="30" width="142.5" height="30" as="geometry">
            <mxRectangle width="142.5" height="30" as="alternateBounds" />
          </mxGeometry>
        </mxCell>
        <mxCell id="AqpXS15bqgrEqTLivbJl-36" value="" style="fontSize=12;html=1;endArrow=ERmandOne;startArrow=ERzeroToOne;rounded=0;entryX=0.25;entryY=0;entryDx=0;entryDy=0;exitX=0.25;exitY=1;exitDx=0;exitDy=0;startFill=0;" parent="1" source="AqpXS15bqgrEqTLivbJl-1" target="PWjsfuIPjYbMQ2Njbi1s-332" edge="1">
          <mxGeometry width="100" height="100" relative="1" as="geometry">
            <mxPoint x="40" y="320" as="sourcePoint" />
            <mxPoint x="200" y="320" as="targetPoint" />
          </mxGeometry>
        </mxCell>
        <mxCell id="AqpXS15bqgrEqTLivbJl-37" value="" style="edgeStyle=entityRelationEdgeStyle;fontSize=12;html=1;endArrow=ERmandOne;startArrow=ERoneToMany;rounded=0;endFill=0;startFill=0;" parent="1" source="AqpXS15bqgrEqTLivbJl-24" target="AqpXS15bqgrEqTLivbJl-2" edge="1">
          <mxGeometry width="100" height="100" relative="1" as="geometry">
            <mxPoint x="11" y="275" as="sourcePoint" />
            <mxPoint x="108" y="305" as="targetPoint" />
            <Array as="points">
              <mxPoint x="70" y="330" />
              <mxPoint x="130" y="260" />
            </Array>
          </mxGeometry>
        </mxCell>
        <mxCell id="PWjsfuIPjYbMQ2Njbi1s-358" style="rounded=0;orthogonalLoop=1;jettySize=auto;html=1;endArrow=ERmandOne;endFill=0;startArrow=ERoneToMany;startFill=0;elbow=vertical;edgeStyle=orthogonalEdgeStyle;" parent="1" source="PWjsfuIPjYbMQ2Njbi1s-354" target="PWjsfuIPjYbMQ2Njbi1s-332" edge="1">
          <mxGeometry relative="1" as="geometry">
            <mxPoint x="364" y="652" as="targetPoint" />
            <mxPoint x="187" y="650" as="sourcePoint" />
          </mxGeometry>
        </mxCell>
        <mxCell id="PWjsfuIPjYbMQ2Njbi1s-139" value="" style="edgeStyle=entityRelationEdgeStyle;fontSize=12;html=1;endArrow=ERmandOne;startArrow=ERzeroToOne;rounded=0;startFill=0;endFill=0;" parent="1" source="PWjsfuIPjYbMQ2Njbi1s-121" target="PWjsfuIPjYbMQ2Njbi1s-86" edge="1">
          <mxGeometry width="100" height="100" relative="1" as="geometry">
            <mxPoint x="20" y="583.5" as="sourcePoint" />
            <mxPoint x="200" y="896.5" as="targetPoint" />
          </mxGeometry>
        </mxCell>
        <mxCell id="PWjsfuIPjYbMQ2Njbi1s-56" value="" style="edgeStyle=entityRelationEdgeStyle;fontSize=12;html=1;endArrow=ERzeroToOne;startArrow=ERmandOne;rounded=0;endFill=0;" parent="1" source="PWjsfuIPjYbMQ2Njbi1s-14" target="PWjsfuIPjYbMQ2Njbi1s-34" edge="1">
          <mxGeometry width="100" height="100" relative="1" as="geometry">
            <mxPoint x="390" y="360" as="sourcePoint" />
            <mxPoint x="290" y="460" as="targetPoint" />
          </mxGeometry>
        </mxCell>
        <mxCell id="11huZsw0YOGw-BMZvz2H-10" value="Organization" style="shape=table;startSize=30;container=1;collapsible=1;childLayout=tableLayout;fixedRows=1;rowLines=0;fontStyle=1;align=center;resizeLast=1;" parent="1" vertex="1">
          <mxGeometry x="-330" y="1" width="154.5" height="100" as="geometry" />
        </mxCell>
        <mxCell id="11huZsw0YOGw-BMZvz2H-11" value="" style="shape=partialRectangle;collapsible=0;dropTarget=0;pointerEvents=0;fillColor=none;points=[[0,0.5],[1,0.5]];portConstraint=eastwest;top=0;left=0;right=0;bottom=1;" parent="11huZsw0YOGw-BMZvz2H-10" vertex="1">
          <mxGeometry y="30" width="154.5" height="30" as="geometry" />
        </mxCell>
        <mxCell id="11huZsw0YOGw-BMZvz2H-12" value="PK" style="shape=partialRectangle;overflow=hidden;connectable=0;fillColor=none;top=0;left=0;bottom=0;right=0;fontStyle=1;" parent="11huZsw0YOGw-BMZvz2H-11" vertex="1">
          <mxGeometry width="30" height="30" as="geometry">
            <mxRectangle width="30" height="30" as="alternateBounds" />
          </mxGeometry>
        </mxCell>
        <mxCell id="11huZsw0YOGw-BMZvz2H-13" value="id" style="shape=partialRectangle;overflow=hidden;connectable=0;fillColor=none;top=0;left=0;bottom=0;right=0;align=left;spacingLeft=6;fontStyle=5;" parent="11huZsw0YOGw-BMZvz2H-11" vertex="1">
          <mxGeometry x="30" width="124.5" height="30" as="geometry">
            <mxRectangle width="124.5" height="30" as="alternateBounds" />
          </mxGeometry>
        </mxCell>
        <mxCell id="11huZsw0YOGw-BMZvz2H-14" value="" style="shape=partialRectangle;collapsible=0;dropTarget=0;pointerEvents=0;fillColor=none;points=[[0,0.5],[1,0.5]];portConstraint=eastwest;top=0;left=0;right=0;bottom=0;" parent="11huZsw0YOGw-BMZvz2H-10" vertex="1">
          <mxGeometry y="60" width="154.5" height="30" as="geometry" />
        </mxCell>
        <mxCell id="11huZsw0YOGw-BMZvz2H-15" value="" style="shape=partialRectangle;overflow=hidden;connectable=0;fillColor=none;top=0;left=0;bottom=0;right=0;" parent="11huZsw0YOGw-BMZvz2H-14" vertex="1">
          <mxGeometry width="30" height="30" as="geometry">
            <mxRectangle width="30" height="30" as="alternateBounds" />
          </mxGeometry>
        </mxCell>
        <mxCell id="11huZsw0YOGw-BMZvz2H-16" value="name" style="shape=partialRectangle;overflow=hidden;connectable=0;fillColor=none;top=0;left=0;bottom=0;right=0;align=left;spacingLeft=6;" parent="11huZsw0YOGw-BMZvz2H-14" vertex="1">
          <mxGeometry x="30" width="124.5" height="30" as="geometry">
            <mxRectangle width="124.5" height="30" as="alternateBounds" />
          </mxGeometry>
        </mxCell>
        <mxCell id="11huZsw0YOGw-BMZvz2H-26" style="edgeStyle=orthogonalEdgeStyle;rounded=0;orthogonalLoop=1;jettySize=auto;html=1;endArrow=ERoneToMany;endFill=0;startArrow=ERmandOne;startFill=0;" parent="1" source="11huZsw0YOGw-BMZvz2H-11" target="11huZsw0YOGw-BMZvz2H-20" edge="1">
          <mxGeometry relative="1" as="geometry" />
        </mxCell>
        <mxCell id="11huZsw0YOGw-BMZvz2H-42" value="" style="edgeStyle=entityRelationEdgeStyle;fontSize=12;html=1;endArrow=ERzeroToOne;startArrow=ERmandOne;rounded=0;endFill=0;" parent="1" source="PWjsfuIPjYbMQ2Njbi1s-13" target="AqpXS15bqgrEqTLivbJl-11" edge="1">
          <mxGeometry width="100" height="100" relative="1" as="geometry">
            <mxPoint x="600" y="200" as="sourcePoint" />
            <mxPoint x="670" y="368" as="targetPoint" />
          </mxGeometry>
        </mxCell>
        <mxCell id="11huZsw0YOGw-BMZvz2H-59" value="" style="edgeStyle=entityRelationEdgeStyle;fontSize=12;html=1;endArrow=ERmandOne;startArrow=ERzeroToOne;rounded=0;startFill=0;endFill=0;" parent="1" source="11huZsw0YOGw-BMZvz2H-63" target="PWjsfuIPjYbMQ2Njbi1s-86" edge="1">
          <mxGeometry width="100" height="100" relative="1" as="geometry">
            <mxPoint x="17" y="572" as="sourcePoint" />
            <mxPoint x="77" y="855" as="targetPoint" />
          </mxGeometry>
        </mxCell>
        <mxCell id="11huZsw0YOGw-BMZvz2H-108" style="edgeStyle=orthogonalEdgeStyle;rounded=0;orthogonalLoop=1;jettySize=auto;html=1;startArrow=ERzeroToOne;startFill=0;endArrow=ERmandOne;endFill=0;" parent="1" source="11huZsw0YOGw-BMZvz2H-105" edge="1" target="PWjsfuIPjYbMQ2Njbi1s-30">
          <mxGeometry relative="1" as="geometry">
            <mxPoint x="439" y="795" as="sourcePoint" />
            <mxPoint x="683" y="590" as="targetPoint" />
          </mxGeometry>
        </mxCell>
      </root>
    </mxGraphModel>
  </diagram>
</mxfile>
